<svg width="42" height="112" viewBox="0 0 42 112" fill="none" xmlns="http://www.w3.org/2000/svg">
<path d="M37.4037 52.8667L33.9186 58.8004L35.7002 50.8112L34.2974 52.5007L35.3872 46.9132L34.456 46.3341C34.456 46.3341 34.2708 45.4644 34.0203 40.9076C33.7728 36.3889 31.1256 27.3707 30.7654 24.3227C30.4053 21.2746 29.1974 20.6024 28.6393 19.878C28.0811 19.1536 27.6122 15.2297 24.7362 8.15288C21.8602 1.07609 17.1154 1.38018 12.6567 2.8536C7.52249 4.53512 5.1844 7.03057 4.22264 11.3386C3.29909 15.6436 5.46293 23.4314 6.78881 30.3634C8.11469 37.2954 6.95849 40.6191 6.96659 42.1569C6.9747 43.6947 8.2347 45.0166 12.2102 48.5436C16.224 52.0674 17.089 56.6134 17.089 56.6134C17.089 56.6134 14.9113 53.4421 13.2293 51.6541C11.5472 49.866 8.05676 48.0694 8.05676 48.0694C8.05676 48.0694 7.76667 49.2465 7.68831 53.0605C7.60996 56.8745 9.40752 61.5379 12.4949 65.0208C15.5823 68.5037 17.3564 71.4381 17.3564 71.4381C17.3564 71.4381 16.7982 70.7137 15.3976 69.557C14.0353 68.3971 11.392 67.5709 9.85526 66.1558C8.31855 64.7408 7.22589 60.7131 7.22589 60.7131C7.22589 60.7131 6.81194 61.7848 7.24377 64.2886C7.71688 66.8275 8.3978 69.0806 11.2221 72.1615C14.0495 75.2806 17.9289 79.0461 17.9289 79.0461C17.9289 79.0461 14.2122 77.306 11.4236 76.1069C8.63496 74.9077 7.88345 71.7757 7.88345 71.7757C7.88345 71.7757 7.58415 72.8382 8.15043 75.1005C8.71671 77.3627 10.3762 80.3064 15.489 83.6266C20.64 86.9438 19.864 88.7753 19.864 88.7753C19.864 88.7753 18.6684 88.256 16.9147 87.0122C16.1808 86.4942 14.3646 85.9092 11.6864 86.0858C9.69922 86.2454 7.43057 85.7737 7.55749 85.9174C7.68134 86.0228 11.8521 88.1495 13.947 90.2889C16.0419 92.4284 19.4314 93.9255 19.4314 93.9255C19.4314 93.9255 17.2838 94.4826 15.8866 94.3255C14.4511 94.1716 10.2775 92.9682 10.2775 92.9682C10.2775 92.9682 10.7119 93.5872 11.2792 94.4263C11.8466 95.2653 16.3566 96.8263 16.3566 96.8263L12.5817 99.6294C12.5817 99.6294 14.4617 99.0938 15.6082 99.0017C16.7547 98.9097 21.4858 98.9144 21.4858 98.9144C21.4858 98.9144 20.5154 99.7615 18.912 100.39C17.3087 101.019 14.9017 103.135 14.9017 103.135C14.9017 103.135 16.5664 103.271 19.4875 102.767C20.8923 102.539 22.3428 101.923 23.4906 101.369C23.41 97.4906 23.3173 89.1519 23.5161 73.9051C23.7893 51.9215 17.5981 26.0723 17.1513 24.339C17.1482 24.3007 17.1451 24.2625 17.1421 24.2243C17.1421 24.2243 17.1451 24.2625 17.1513 24.339C17.6179 25.84 24.2968 41.9576 25.1342 66.2751C25.7324 83.3041 25.6719 95.9628 25.9189 103.828L26.5153 109.818L28.334 108.518L28.1908 100.03C28.1908 100.03 29.354 99.6672 32.4257 96.7282C35.4975 93.7892 38.2483 86.376 38.2483 86.376C38.2483 86.376 37.3178 87.7199 36.2634 88.9585C35.209 90.197 32.5942 92.5993 32.5942 92.5993C32.5942 92.5993 33.3811 91.3822 35.1992 88.1593C37.0173 84.9364 38.0873 79.5812 38.0873 79.5812C36.4116 82.786 34.5234 85.1045 32.472 87.7245C36.5534 82.5121 38.2164 71.6092 38.2164 71.6092L35.3422 75.5708L37.715 67.3249L37.7469 65.7623C37.7469 65.7623 38.2953 64.449 38.0897 61.8886C37.9254 59.3633 37.4037 52.8667 37.4037 52.8667Z" fill="white"/>
</svg>
