<svg width="351" height="340" viewBox="0 0 351 340" fill="none" xmlns="http://www.w3.org/2000/svg">
<path fill-rule="evenodd" clip-rule="evenodd" d="M95.742 114.343C93.7068 116.964 91.0795 119.735 88.3381 122.627C85.6929 125.417 82.9415 128.319 80.513 131.307C76.3346 139.326 72.2364 148.377 68.2511 158.566C70.2658 157.482 72.3788 156.719 74.6556 156.493C71.8553 159.241 69.2406 162.332 66.6604 165.383L66.6603 165.384C66.122 166.02 65.5851 166.655 65.0484 167.285C64.7807 168.041 64.5037 168.815 64.2267 169.588L64.2253 169.592C63.9489 170.364 63.6724 171.136 63.4053 171.891C62.1811 175.373 61.1016 178.752 60.1293 182.098C64.0977 179.538 68.8274 177.742 72.4096 176.414C66.9809 179.186 61.6573 184.798 57.6776 190.588C56.3473 195.451 55.2734 200.001 54.3858 204.201C61.3899 199.482 69.6126 195.682 76.5343 192.806C67.2387 196.934 58.4638 204.305 52.7043 213.1C52.2312 216.353 51.8699 219.395 51.5831 222.297C52.4007 221.759 53.3543 221.293 54.2743 220.895C53.2084 222.09 52.2082 223.486 51.4081 224.99C51.1044 229.95 51.2061 234.317 51.6059 238.124C52.8832 236.737 54.3005 235.425 55.7833 234.327C54.3491 237.697 53.1995 241.039 52.5773 244.571C56.0717 260.628 65.276 264.269 67.8283 264.37C72.3972 264.574 74.3652 263.21 77.4762 261.053C78.1301 260.6 78.8345 260.112 79.6242 259.596C80.3097 259.152 81.0325 258.638 81.6898 257.91C84.1912 253.041 86.2634 248.303 86.5852 242.634C87.9585 244.443 88.5898 246.127 88.6893 247.797C91.1399 243.531 94.1257 237.752 98.0851 229.975C99.098 225.033 99.7236 219.975 98.4406 214.619C101.11 215.681 102.521 217.42 103.316 219.64C109.115 207.901 114.439 196.717 120.223 184.16C122.016 175.361 120.501 166.333 119.019 157.504C118.29 153.158 117.569 148.86 117.254 144.662C118.2 147.27 119.914 149.308 121.638 151.358C123.299 153.333 124.969 155.319 125.967 157.835C127.263 161.31 127.667 164.94 127.47 168.519C128.307 166.728 129.145 164.905 129.998 163.049L129.999 163.048L130 163.046C131.134 160.579 132.295 158.054 133.515 155.473C134.882 149.4 134.636 142.837 134.397 136.462L134.397 136.462C134.245 132.392 134.095 128.399 134.37 124.658C138.393 131.113 139.239 138.302 138.135 145.442C149.894 119.802 150.772 114.608 149.778 103.476C149.283 97.8216 144.321 85.0273 144.321 85.0273L153.491 91.4351L147.108 81.4789L163.815 90.1012C163.815 90.1012 164.443 87.7397 162.691 79.8885C160.869 72.0001 148.942 70.7738 148.942 70.7738C148.942 70.7738 155.15 68.0576 157.996 67.7752C160.842 67.4929 165.93 64.1804 165.93 64.1804C165.93 64.1804 161.299 62.0754 159.634 61.9975C157.044 61.967 151.102 64.0158 147.878 65.1757C100.319 146.431 89.727 173.59 89.727 173.59C96.9081 152.163 105.981 133.091 118.34 110.376C134.943 79.8562 153.38 49.7736 159.969 39.0831L156.328 37.1452L139.213 64.0679C139.213 64.0679 137.659 63.78 131.416 63.692C125.136 63.674 116.953 70.1013 116.953 70.1013L129.782 67.944L117.725 73.2081L129.226 73.0396C129.226 73.0396 109.647 82.4768 88.4747 116.854C90.7785 115.565 93.1479 114.489 95.742 114.343ZM54.4699 220.787C54.4274 220.812 54.3966 220.83 54.3533 220.807C54.3943 220.794 54.4564 220.767 54.5094 220.743C54.5952 220.705 54.6572 220.678 54.5679 220.741C54.5269 220.754 54.4962 220.772 54.4699 220.787ZM307.5 133.801C309.002 136.829 309.835 140.885 308.556 142.27C307.903 142.978 306.994 142.721 305.916 142.418C304.885 142.127 303.699 141.793 302.438 142.221C300.045 143.017 299.828 141.464 299.237 137.244C299.208 137.038 299.179 136.825 299.148 136.606C298.773 134.073 299.213 132.884 299.901 131.027C300.507 129.389 301.305 127.232 301.908 123.174C303.194 114.513 296.332 106.993 296.332 106.993C296.332 106.993 297.871 111.635 297.747 117.16C297.623 122.686 293.709 131.978 293.709 131.978C293.709 131.978 292.886 127.008 292.45 123.628C292.014 120.248 291.277 113.409 290.686 105.577C290.026 97.784 282.449 87.9568 282.449 87.9568C282.449 87.9568 284.748 94.5158 284.498 99.2064C284.248 103.897 281.904 108.27 281.904 108.27C281.904 108.27 280.691 108.527 279.602 103.257C279.398 102.34 279.394 101.198 279.39 99.6558C279.384 97.4155 279.376 94.3295 278.745 89.8551C277.679 82.3002 269.468 71.3906 269.468 71.3906C269.468 71.3906 273.784 81.8567 273.889 86.0668C273.993 90.2769 273.584 102.604 273.584 102.604C273.584 102.604 269.114 86.1387 265.952 79.8128C263.456 74.6797 257.015 65.5359 254.406 61.8331L254.406 61.8329L254.405 61.8316C253.779 60.9435 253.374 60.3687 253.298 60.2378C253.209 60.0866 253.379 60.4924 253.7 61.2616L253.701 61.2621L253.701 61.2624C254.818 63.9351 257.77 70.9923 258.101 74.3263C258.528 78.6204 257.93 84.4235 257.93 84.4235C257.93 84.4235 252.11 67.2048 232.199 43.1579C212.357 19.0713 185.078 26.3348 183.042 29.5278C179.132 35.7271 179.82 40.777 185.82 54.8911C192.114 69.7597 200.615 76.1717 210.556 83.6703L210.556 83.6705C211.812 84.6181 213.092 85.583 214.392 86.5845C221.749 92.2494 227.528 93.9723 231.295 95.0955C233.465 95.7423 234.967 96.1903 235.72 97.0776C237.344 98.9934 235.337 99.248 231.976 99.6742L231.976 99.6743C231.077 99.7883 230.081 99.9146 229.032 100.088C224.062 100.911 209.794 95.6411 209.794 95.6411C209.794 95.6411 222.223 104.442 231.597 112.217C237.725 117.323 244.531 119.837 248.696 121.376C250.929 122.2 252.403 122.745 252.609 123.258C253.199 124.73 246.447 126.234 239.888 125.898C233.329 125.561 227.897 116.294 227.897 116.294C227.897 116.294 227.612 123.096 233.21 127.994C238.605 132.716 246.558 131.717 255.24 130.626C255.566 130.585 255.892 130.544 256.219 130.503C265.281 129.373 266.752 134.054 267.146 136.277C267.517 138.369 261.803 138.314 256.03 138.259L256.027 138.259C255.665 138.256 255.303 138.252 254.943 138.249C248.825 138.2 244.967 134.099 244.967 134.099C244.967 134.099 247.033 137.159 248.731 139.436C250.401 141.82 253.732 142.231 258.387 141.956C263.043 141.681 273.009 146.746 273.009 146.746C273.009 146.746 267.164 144.991 265.499 144.786C264.855 144.706 264.093 144.981 263.105 145.338C261.538 145.904 259.403 146.675 256.269 146.56C252.465 146.427 244.157 140.936 244.157 140.936C244.157 140.936 249.162 145.909 252.532 149.023C255.143 151.459 257.692 151.427 262.061 151.373C263.399 151.356 264.908 151.337 266.641 151.387C272.426 151.551 274.604 153.441 276.155 154.786C276.587 155.16 276.969 155.492 277.368 155.733C279.159 156.773 276.25 158.478 273.104 159.777C269.918 161.008 264.273 160.681 264.273 160.681C264.273 160.681 265.546 162.389 268.359 163.467C271.105 164.584 276.794 161.886 276.794 161.886C276.794 161.886 275.473 164.75 271.018 166.452C266.563 168.155 257.807 161.744 257.807 161.744C257.807 161.744 259.197 165.201 264.872 169.146C267.636 171.07 271.006 171.549 274.008 171.244C274.567 174.369 279.027 177.481 284.179 179.914C286.323 180.928 288.783 181.484 290.973 181.979C294.306 182.732 297.01 183.343 297.007 185.21C297.002 188.303 286.236 183.889 286.236 183.889C286.236 183.889 289.685 189.774 296.272 195.274C301.358 199.607 307.974 198.867 312.965 198.308L312.966 198.308C314.921 198.089 316.627 197.899 317.893 198.052C309.526 182.689 300.127 165.568 285.181 140.066C285.181 140.066 304.092 167.061 313.246 183.145C321.527 197.704 327.238 208.698 331.027 215.992C332.701 219.215 334 221.716 334.979 223.481L334.616 216.969L325.402 196.287C325.402 196.287 323.039 189.31 325.225 184.666C327.874 179.136 326.268 177.001 323.377 173.16C322.833 172.438 322.244 171.655 321.63 170.779C321.315 170.332 321.006 169.891 320.703 169.46C320.429 169.071 320.161 168.689 319.899 168.315C317.941 165.526 316.318 163.213 315.386 161.987C315.553 161.607 315.727 161.26 315.901 160.914C316.623 159.48 317.331 158.073 317.346 154.477C317.34 151.209 316.234 148.858 315.147 147.313C315.42 145.672 314.747 143.689 313.706 140.622C313.598 140.304 313.486 139.973 313.371 139.63C311.111 133.139 303.65 127.697 303.65 127.697C303.65 127.697 305.999 130.773 307.5 133.801ZM296.351 170.599C297.185 173.109 292.247 176.003 284.938 175.471C281.054 175.202 278.16 172.9 276.338 170.878C278.521 170.416 280.371 169.695 281.453 169.061C284.43 167.317 295.516 168.089 296.351 170.599ZM318.2 179.968C317.633 182.729 315.589 179.65 313.717 176.829C313.487 176.483 313.26 176.141 313.039 175.814C311.869 174.086 312.37 172.833 313.089 171.036C313.615 169.719 314.258 168.11 314.446 165.81C314.535 165.031 314.635 164.428 314.735 163.824L314.736 163.823C314.88 165.465 315.302 167.58 316.226 169.311C317.937 172.852 318.837 176.868 318.2 179.968ZM313.39 157.341C312.984 158.897 312.083 160.193 311.25 161.391C310.533 162.423 309.865 163.382 309.606 164.375C309.047 166.521 307.148 162.817 305.674 159.682C304.172 156.654 307 153.725 311.735 150.949C312.344 150.593 312.845 150.208 313.279 149.863C313.573 152.69 313.782 155.838 313.39 157.341ZM201.573 240.098L187.825 236.461C187.825 236.461 200.979 232.198 206.109 230.614C211.293 228.934 214.239 229.315 214.239 229.315L217.471 228.589L235.495 228.947L226.077 225.478C226.077 225.478 249.263 223.149 261.786 228.283C261.316 228.091 260.851 227.899 260.387 227.708C254.646 225.346 249.342 223.164 242.555 221.709C242.555 221.709 254.054 221.047 261.489 222.88C268.923 224.713 271.774 225.596 271.774 225.596C271.774 225.596 265.682 221.835 262.669 220.455C259.657 219.074 256.481 217.982 256.481 217.982C256.481 217.982 272.955 219.478 280.353 223.837C287.751 228.197 289.007 230.225 289.007 230.225L306.43 225.679L309.903 228.481L297.824 232.632C291.674 234.325 284.061 236.285 275.059 238.603C260.507 242.351 242.323 247.033 220.814 253.033C175.614 265.611 146.483 283.952 139.386 288.42C138.676 288.867 138.186 289.176 137.923 289.325C141.298 287.603 191.836 262.817 237.239 252.267C268.732 244.967 285.869 240.592 293.822 238.486C295.465 240.389 297.369 242.836 298.454 245.392C300.77 250.691 301.219 253.924 301.219 253.924C301.219 253.924 295.807 250.414 293.81 247.683C291.813 244.951 289.643 243.533 289.643 243.533C289.643 243.533 291.704 252.529 292.395 254.662C293.087 256.795 295.012 260.1 295.012 260.1L287.586 254.335C287.586 254.335 286.345 263.694 284.865 265.195C283.384 266.697 282.299 267.834 282.299 267.834C282.299 267.834 282.952 259.294 282.641 256.488C282.353 253.753 280.266 249.951 280.266 249.951C280.266 249.951 278.665 257.148 275.175 262.207C272.251 266.446 269.983 273.448 269.228 275.78C269.082 276.232 268.992 276.508 268.966 276.555C268.877 276.671 268.818 276.124 268.719 275.202C268.549 273.625 268.262 270.954 267.506 268.621C265.97 263.619 266.381 259.872 267.126 258.216C268.921 254.256 269.468 251.722 269.468 251.722C269.468 251.722 265.355 251.169 260.776 262.631C256.174 274.022 250.837 278.659 246.425 280.875C242.013 283.09 239.693 283.056 239.693 283.056C239.693 283.056 245.816 280.051 247.066 274.146C248.316 268.241 250.273 260.299 250.273 260.299C250.273 260.299 244.215 269.57 239.027 276.515C233.916 283.436 229.573 285.865 224.55 288.043C219.582 290.124 217.193 289.877 217.193 289.877C217.193 289.877 225.011 285.772 227.254 282.138C228.461 280.181 229.177 277.701 229.86 275.332C230.445 273.302 231.007 271.354 231.835 269.889C233.605 266.644 234.852 265.219 234.852 265.219C234.852 265.219 229.584 270.069 223.761 277.692C217.937 285.314 209.118 291.08 201.227 292.851C193.337 294.623 190.785 294.664 190.785 294.664C190.785 294.664 192.958 287.124 195.906 283.026C198.853 278.929 204.432 273.192 204.432 273.192C204.432 273.192 195.447 277.125 189.944 286.53C184.419 295.863 182.247 298.924 179.083 299.714C178.335 299.901 177.352 300.014 176.108 300.157C172.087 300.621 165.328 301.401 154.867 305.99C151.875 307.303 148.816 308.713 145.766 310.119C134.852 315.148 124.048 320.127 116.801 320.449C107.507 320.79 101.343 317.602 95.6328 308.688C90.6468 300.954 87.9442 292.088 101.263 283.057C109.52 277.459 115.685 274.229 119.476 272.243C121.801 271.025 123.233 270.275 123.708 269.733C123.937 269.471 124.154 269.168 124.392 268.833C125.449 267.352 126.938 265.264 131.933 263.453C134.367 262.571 138.589 260.524 143.371 258.207C150.61 254.698 159.131 250.568 164.671 248.915C173.948 246.144 175.659 245.354 175.659 245.354L176.444 243.292L188.431 242.55L184.337 240.734L201.573 240.098Z" fill="white"/>
</svg>
