<svg width="45" height="112" viewBox="0 0 45 112" fill="none" xmlns="http://www.w3.org/2000/svg">
<path d="M34.3291 71.0411C34.0526 72.5037 33.2676 74.15 32.4505 74.2972C31.6334 74.4444 31.4519 73.0321 30.3141 72.6547C29.2105 72.2814 29.6343 71.6358 30.6493 69.808C31.6683 67.9459 32.4349 68.523 35.1871 65.8218C37.9392 63.1205 37.5261 58.6557 37.5261 58.6557C37.5261 58.6557 36.8339 60.6953 35.3225 62.6038C33.8112 64.5122 29.9676 66.7372 29.9676 66.7372C29.9676 66.7372 30.9988 64.7722 31.7433 63.469C32.4879 62.1657 34.0457 59.5673 35.9183 56.6582C37.7565 53.745 37.7046 48.2795 37.7046 48.2795C37.7046 48.2795 36.7702 51.1948 35.4364 52.7764C34.1027 54.358 32.1174 55.2718 32.1174 55.2718C32.1174 55.2718 31.6231 55.0397 32.6401 52.8992C33.0619 51.9752 34.2664 50.9 35.8989 47.9626C37.5314 45.0252 37.544 39.0109 37.544 39.0109C37.544 39.0109 36.2806 43.8347 35.1991 45.3417C34.1175 46.8487 30.6994 51.0711 30.6994 51.0711C30.6994 51.0711 33.5024 44.0988 34.0717 41.0362C34.6752 37.9777 34.7848 31.1402 34.8252 30.7973C34.8655 30.4543 33.7615 35.4012 32.7707 37.0232C31.78 38.6452 30.0286 40.5254 30.0286 40.5254C30.0286 40.5254 32.5573 32.9296 31.9492 19.1921C31.3755 5.45869 19.8619 0.764822 18.2982 1.34573C15.2779 2.48535 14.1781 4.44226 12.5373 10.9951C10.5795 18.7624 12.4554 23.5038 14.1576 29.72C15.8598 35.9362 18.7851 37.6715 18.8637 39.0717C18.9422 40.4719 17.6793 39.3843 15.7143 38.3532C13.7494 37.322 10.1365 31.6807 10.1365 31.6807C10.1365 31.6807 12.1655 38.0744 13.3937 43.2959C14.6179 48.5517 18.0272 52.0827 17.8435 52.7566C17.6599 53.4304 14.8879 52.1652 12.6728 50.3048C10.4577 48.4444 11.011 43.7456 11.011 43.7456C11.011 43.7456 9.10417 46.0596 9.76966 49.2675C10.4351 52.4754 13.7034 54.2512 17.1875 56.261C20.6716 58.2708 19.9451 60.3064 19.4931 61.1921C19.0411 62.0777 16.8179 60.2859 14.6815 58.6435C12.5451 57.001 12.279 54.5355 12.279 54.5355C12.279 54.5355 12.1921 56.1596 12.1839 57.4105C12.1374 58.6916 13.1985 59.7207 14.9072 60.8608C16.616 62.0008 18.7723 66.4275 18.7723 66.4275C18.7723 66.4275 17.1847 64.2585 16.6542 63.744C16.1236 63.2295 14.6851 63.3383 12.94 61.9157C11.6388 60.8584 10.1785 56.7223 10.1785 56.7223C10.1785 56.7223 10.616 59.7991 10.973 61.7885C11.3258 63.8121 12.7603 64.3287 15.3022 66.3667C17.8441 68.4046 17.5675 69.8673 17.9165 70.7429C18.2695 71.5843 16.7947 71.4106 15.3441 71.0312C13.8976 70.6175 12.0012 69.0033 12.0012 69.0033C12.0012 69.0033 11.9951 69.9414 12.6971 71.0673C13.3648 72.1891 16.0803 72.7522 16.0803 72.7522C16.0803 72.7522 14.8556 73.4078 12.8381 72.8225C10.8207 72.2373 9.44714 67.6593 9.44714 67.6593C9.44714 67.6593 9.01726 69.2431 9.96321 72.1363C10.4231 73.5466 11.4802 74.61 12.616 75.3001C11.9824 76.5468 12.7226 78.8247 13.8865 81.0481C15.1069 83.3825 17.8102 85.2309 16.987 86.3162C16.1637 87.4016 13.5534 82.991 13.5534 82.991C13.5534 82.991 13.2021 85.9749 14.0552 89.657C14.9405 93.6558 19.4778 94.9898 20.9142 96.376C22.0548 88.7559 23.3004 80.244 24.8228 67.3138C24.8228 67.3138 24.2969 81.8218 23.241 89.904C21.86 100.452 20.5702 106.976 20.1624 109.849L21.7645 107.464L24.021 97.7503C24.021 97.7503 25.0442 94.6716 27.0457 93.6207C29.8966 92.1481 29.3641 90.764 29.4713 87.7862C29.5421 85.7081 29.615 83.9085 29.613 83.0389C30.4322 82.579 31.104 82.4842 32.2965 80.9207C33.1622 79.7708 33.3983 78.6511 33.4266 77.8199C34.0138 77.2631 34.3064 76.2544 34.8432 74.6484C35.7736 71.7675 34.5977 67.8735 34.5977 67.8735C34.5977 67.8735 34.6057 69.5784 34.3291 71.0411ZM20.6372 81.0084C20.2638 82.112 17.7601 81.8172 15.3332 79.6885C14.0401 78.5626 13.6347 76.9848 13.5319 75.7904C14.4216 76.2081 15.2629 76.4463 15.8116 76.5109C17.3207 76.6886 21.0105 79.9049 20.6372 81.0084ZM25.8254 90.104C24.7782 91.0239 25.0327 88.8631 25.1155 87.2733C25.1984 85.6835 26.6651 85.9257 28.2672 84.1323C28.5053 83.8821 28.701 83.6965 28.8967 83.5109C28.5113 84.1263 28.0977 84.9816 27.9624 85.8351C27.6233 87.5338 26.8726 89.1841 25.8254 90.104ZM30.1458 80.8762C29.1108 81.6932 27.7146 81.7374 26.9479 82.3426C26.1812 82.9478 26.4981 81.1421 26.813 79.6492C27.0895 78.1865 28.861 77.9082 31.2618 78.1909C31.5705 78.2273 31.8489 78.2253 32.093 78.2192C31.4453 79.2905 30.6825 80.4525 30.1458 80.8762Z" fill="white"/>
</svg>
