<svg width="31" height="119" viewBox="0 0 31 119" fill="none" xmlns="http://www.w3.org/2000/svg">
<path d="M27.7468 71.3358C28.2835 68.2304 29.6637 64.3583 30.3921 60.6394C30.3538 56.2689 30.0471 51.4766 29.4337 46.2242C28.8203 47.1443 28.0918 47.9495 27.1717 48.5629C27.8618 46.3776 28.3219 44.0389 28.8203 41.777C28.7052 41.0102 28.5902 40.2051 28.4752 39.4383C28.2068 37.6748 27.9001 35.9879 27.5551 34.3393C26.4433 36.3329 24.8331 38.1732 23.6062 39.5533C25.2931 37.138 26.2899 33.5342 26.6733 30.1605C26.1366 27.7835 25.5615 25.5982 24.9864 23.6046C23.0695 27.2084 20.4242 30.6972 18.1239 33.4959C21.1526 29.6237 23.2229 24.4864 23.6829 19.4257C23.1462 17.9305 22.6094 16.5503 22.0727 15.2468C21.8427 15.6686 21.536 16.0903 21.2293 16.4737C21.2293 16.4737 21.2293 16.4737 21.2293 16.512C21.1909 16.5503 21.1142 16.6654 21.1526 16.5887C21.1909 16.5503 21.1909 16.512 21.2293 16.512C21.421 15.7452 21.536 14.9018 21.536 14.0583C20.5392 11.8731 19.504 10.0328 18.4689 8.49929C18.2389 9.38107 17.9322 10.2629 17.5488 11.068C17.3954 9.30439 17.1271 7.61751 16.5903 5.96896C11.453 -0.0885021 6.69903 0.448235 5.58722 0.984972C3.1719 2.13512 2.90353 3.40029 1.63837 5.70059C1.44668 6.04563 1.25498 6.42902 1.13997 6.88908C1.17831 9.53442 1.37 12.0264 2.52015 14.5184C1.52335 14.0583 0.871597 13.4833 0.449876 12.7932C0.373199 15.1702 0.41154 18.3139 0.488216 22.5311C1.17831 24.8698 2.06009 27.1701 3.82365 29.1637C2.44347 29.317 1.44667 28.8953 0.60323 28.1285C0.794921 34.4543 1.06329 40.4351 1.44668 47.106C3.28692 53.3168 8.38592 58.0708 11.683 63.2848C9.72776 61.5212 7.00573 61.3679 4.9738 59.6426C3.63196 58.4542 2.63516 56.9973 1.90673 55.4254C2.02175 57.6491 2.1751 59.9494 2.29012 62.3647C3.59362 67.1186 7.04407 71.4509 8.92265 75.7064C5.74057 73.8662 3.74698 70.9908 2.59683 67.6937C3.40193 81.3038 4.20703 83.7191 7.15909 88.2431C8.65428 90.5434 13.6766 94.8756 13.6766 94.8756L8.30924 94.2238L13.2932 97.0225L4.20704 97.1376C4.20704 97.1376 4.4754 98.2877 7.00574 101.24C9.57441 104.192 14.9418 102.007 14.9418 102.007C14.9418 102.007 12.9098 104.575 11.7597 105.342C10.6095 106.109 9.19102 108.677 9.19102 108.677C9.19102 108.677 11.6447 108.524 12.3731 108.179C13.4849 107.604 15.5552 105.38 16.667 104.153C18.5072 58.6842 16.8587 44.6907 16.8587 44.6907C18.6606 55.4638 19.1207 65.6618 19.0056 78.1601C18.8523 94.9523 17.8172 111.974 17.4338 118.032H19.4274L20.6159 102.658C20.6159 102.658 21.3443 102.428 24.028 101.048C26.7116 99.6295 28.7436 95.0289 28.7436 95.0289L23.7596 98.8628L27.7084 93.8788L22.8395 96.5625C22.8395 96.5625 29.0503 88.0897 30.2771 68.6138C29.587 69.6873 28.8203 70.6841 27.7468 71.3358Z" fill="white"/>
</svg>
