<svg xmlns="http://www.w3.org/2000/svg" fill="none" width="471" height="259" viewBox="0 0 471 259" ><g fill="#d5ebf5"><circle cx="433" cy="74" r="20"/><circle cx="384" cy="74" r="20"/><circle cx="433" cy="123" r="20"/><circle cx="384" cy="123" r="20"/></g><path d="M327.915 48c-19.945 0-41.332 19.103-49.747 44.43-4.874 14.705-4.095 28.785 2.137 38.625 4.31 6.874 11.083 11.074 19.065 11.825.772.08 1.58.12 2.57.12 9.116 0 19.143-4.5 28.236-12.664 9.116-8.155 16.644-19.42 21.194-31.727 5.538-15.053 4.882-29.378-1.797-39.297C344.667 52.018 336.977 48 327.915 48z" fill="#fbcc5c" style="mix-blend-mode:multiply"/><path d="M66.7 40C54.758 40 41.94 51.462 36.9 66.66c-2.92 8.823-2.454 17.27 1.28 23.175 2.584 4.124 6.642 6.644 11.425 7.095.462.047.947.07 1.54.07 5.463 0 11.472-2.7 16.92-7.598 5.463-4.893 9.974-11.652 12.7-19.036 3.32-9.032 2.926-17.627-1.077-23.578C76.75 42.41 72.14 40 66.7 40z" fill="#42d689" style="mix-blend-mode:multiply"/><path d="M126.7 40c-11.952 0-24.77 11.462-29.81 26.66-2.92 8.823-2.454 17.27 1.28 23.175 2.584 4.124 6.642 6.644 11.425 7.095a14.78 14.78 0 0 0 1.539.071c5.464 0 11.472-2.7 16.92-7.598 5.463-4.893 9.974-11.652 12.7-19.036 3.32-9.032 2.926-17.627-1.077-23.578C136.75 42.41 132.14 40 126.7 40z" fill="#bf97ff" style="mix-blend-mode:multiply"/><path d="M66.7 103c-11.952 0-24.77 11.462-29.81 26.66-2.92 8.822-2.454 17.27 1.28 23.174 2.584 4.125 6.642 6.645 11.425 7.096.462.047.947.07 1.54.07 5.463 0 11.472-2.7 16.92-7.598 5.463-4.894 9.974-11.652 12.7-19.037 3.32-9.032 2.926-17.627-1.077-23.578C76.75 105.41 72.14 103 66.7 103z" fill="#fb7c6d" style="mix-blend-mode:multiply"/><path d="M126.7 103c-11.952 0-24.77 11.462-29.81 26.66-2.92 8.822-2.454 17.27 1.28 23.174 2.584 4.125 6.642 6.645 11.425 7.096.463.047.948.07 1.54.07 5.464 0 11.472-2.7 16.92-7.598 5.463-4.894 9.974-11.652 12.7-19.037 3.32-9.032 2.926-17.627-1.077-23.578C136.75 105.41 132.14 103 126.7 103z" fill="#73ddff" style="mix-blend-mode:multiply"/><g fill="#000"><path d="M22.28 208.32c-1.12 0-2.06-.32-2.82-.96-.147-.147-.233-.28-.26-.4-.053-.24-.113-.793-.18-1.66l-.02-.44c0-.093.033-.16.1-.2.08-.053.18-.08.3-.08.173 0 .28.073.32.22.24.973.613 1.693 1.12 2.16.52.467 1.093.7 1.72.7.693 0 1.267-.22 1.72-.66.453-.453.68-1.047.68-1.78 0-.52-.087-.947-.26-1.28a2.27 2.27 0 0 0-.68-.86c-.293-.24-.733-.54-1.32-.9l-.4-.24-1.54-1.04c-.373-.293-.693-.653-.96-1.08s-.4-.913-.4-1.46c0-1.067.36-1.94 1.08-2.62s1.753-1.02 3.1-1.02c.68 0 1.38.147 2.1.44.093.04.18.107.26.2a.73.73 0 0 1 .16.3l.3 1.14a3.62 3.62 0 0 1 .1.84c0 .147-.1.22-.3.22-.12 0-.24-.027-.36-.08-.107-.053-.173-.12-.2-.2-.293-.733-.633-1.28-1.02-1.64a1.91 1.91 0 0 0-1.38-.54c-.667 0-1.22.187-1.66.56-.427.36-.64.933-.64 1.72 0 .373.12.72.36 1.04s.54.613.9.88l1.54 1 1.52 1.04c.387.307.713.687.98 1.14s.4.993.4 1.62c0 1.187-.4 2.14-1.2 2.86-.8.707-1.853 1.06-3.16 1.06zm8.997-.04c-.667 0-1.18-.2-1.54-.6-.36-.413-.54-1.007-.54-1.78v-4.64c0-.12-.047-.2-.14-.24-.08-.04-.247-.06-.5-.06h-.12c-.067 0-.127-.04-.18-.12-.04-.08-.06-.173-.06-.28 0-.027.013-.06.04-.1l.1-.12c.72-.507 1.313-1.04 1.78-1.6.053-.067.107-.12.16-.16a.25.25 0 0 1 .18-.08c.187 0 .273.073.26.22l-.1.9v.08c0 .12.04.2.12.24s.2.06.36.06h2.28c.053 0 .1.047.14.14.04.08.06.18.06.3s-.02.24-.06.36c-.04.107-.087.16-.14.16h-1.98c-.36 0-.587.027-.68.08-.08.053-.12.213-.12.48v3.94c0 .547.113.973.34 1.28.227.293.553.44.98.44.373 0 .667-.027.88-.08.227-.053.427-.147.6-.28l.08-.04c.093 0 .14.093.14.28 0 .08-.12.227-.36.44-.24.2-.54.38-.9.54a2.55 2.55 0 0 1-1.08.24zm4.85 0c-.227 0-.467-.093-.72-.28-.253-.173-.467-.393-.64-.66-.16-.28-.24-.54-.24-.78 0-.413.107-.74.32-.98.227-.24.593-.467 1.1-.68l2.04-.84c.253-.107.407-.2.46-.28s.087-.253.1-.52l.04-1.28c.013-.36-.087-.66-.3-.9-.213-.253-.507-.38-.88-.38a1.88 1.88 0 0 0-.6.1c-.2.067-.367.153-.5.26-.133.093-.2.287-.2.58l.02.36c0 .107-.173.253-.52.44-.333.173-.6.26-.8.26-.067 0-.12-.013-.16-.04-.04-.04-.06-.087-.06-.14 0-.213.067-.44.2-.68.147-.253.347-.487.6-.7.453-.413.96-.753 1.52-1.02.573-.267 1.06-.4 1.46-.4.48 0 .873.173 1.18.52.32.333.473.753.46 1.26l-.1 4.8c-.013.28.047.507.18.68s.313.26.54.26c.333 0 .58-.073.74-.22.067-.067.12-.1.16-.1.067 0 .12.02.16.06s.06.093.06.16c0 .053-.02.127-.06.22a.85.85 0 0 1-.16.22 2.51 2.51 0 0 1-.7.5c-.24.133-.467.2-.68.2-.613 0-1.1-.347-1.46-1.04h-.06c-.44.36-.86.62-1.26.78-.4.173-.813.26-1.24.26zm.94-.96c.467 0 .86-.16 1.18-.48.08-.08.14-.18.18-.3s.067-.293.08-.52l.04-.98v-.12c0-.107-.013-.18-.04-.22-.027-.053-.073-.08-.14-.08-.08 0-.213.033-.4.1-.667.24-1.147.493-1.44.76s-.44.527-.44.78c0 .333.093.593.28.78a.99.99 0 0 0 .7.28zm9.888.96c-.507 0-1.08-.087-1.72-.26l-.52-.16-.4-.1c-.147-.04-.24-.06-.28-.06-.12 0-.267.087-.44.26-.067.067-.127.1-.18.1-.067 0-.133-.02-.2-.06-.053-.053-.08-.113-.08-.18a2.58 2.58 0 0 1 .06-.48c.053-.4.08-.72.08-.96v-9.7c0-.347-.087-.647-.26-.9a1.43 1.43 0 0 0-.66-.56c-.173-.093-.26-.193-.26-.3s.08-.173.24-.2c.227-.04.573-.147 1.04-.32l1.06-.44a.46.46 0 0 1 .18-.06c.027 0 .053.013.08.04s.04.06.04.1-.013.26-.04.66l-.02 1.44v4.1c0 .253.013.427.04.52.027.08.073.127.14.14.413-.347.893-.627 1.44-.84.547-.227 1.04-.34 1.48-.34.667 0 1.273.173 1.82.52s.98.82 1.3 1.42.48 1.267.48 2c0 .907-.187 1.713-.56 2.42a4.06 4.06 0 0 1-1.56 1.62c-.667.387-1.433.58-2.3.58zm.46-.62c.747 0 1.34-.333 1.78-1 .453-.68.68-1.533.68-2.56 0-.547-.107-1.093-.32-1.64-.2-.547-.507-1-.92-1.36s-.92-.54-1.52-.54c-.973 0-1.787.307-2.44.92v3.88c0 .68.273 1.233.82 1.66s1.187.64 1.92.64zm5.14.4c-.267 0-.4-.06-.4-.18 0-.093.033-.16.1-.2.08-.053.2-.107.36-.16a3.22 3.22 0 0 0 .64-.26c.147-.093.22-.26.22-.5v-10.08c0-.84-.307-1.327-.92-1.46-.053-.013-.093-.04-.12-.08-.027-.053-.04-.113-.04-.18 0-.133.047-.213.14-.24.52-.12 1.113-.32 1.78-.6l.48-.18c.053-.027.093-.04.12-.04s.047.02.06.06c.027.027.04.053.04.08 0 .08-.027.333-.08.76-.04.427-.06 1.08-.06 1.96v10c0 .24.067.407.2.5.147.08.367.167.66.26.16.053.273.107.34.16.08.04.12.107.12.2 0 .12-.133.18-.4.18a5.09 5.09 0 0 1-.86-.06l-.76-.04c-.213 0-.467.013-.76.04-.213.04-.5.06-.86.06zm8.285.24c-.72 0-1.36-.18-1.92-.54-.547-.36-.973-.867-1.28-1.52-.307-.667-.46-1.433-.46-2.3a4.41 4.41 0 0 1 .52-2.1c.36-.653.833-1.167 1.42-1.54.587-.387 1.227-.58 1.92-.58.8 0 1.453.24 1.96.72.52.467.78 1.067.78 1.8 0 .413-.2.62-.6.62h-4.22c-.187 0-.32.053-.4.16-.067.093-.1.287-.1.58 0 .627.133 1.207.4 1.74.28.533.653.96 1.12 1.28a2.84 2.84 0 0 0 1.56.46c.787 0 1.44-.3 1.96-.9.08-.107.153-.16.22-.16.107 0 .16.067.16.2 0 .253-.12.533-.36.84-.293.387-.68.693-1.16.92-.48.213-.987.32-1.52.32zm-.02-6.06c.627 0 1.12-.033 1.48-.1.107-.013.16-.16.16-.44 0-.387-.173-.713-.52-.98-.333-.28-.733-.42-1.2-.42-.293 0-.6.093-.92.28-.307.173-.56.393-.76.66s-.3.533-.3.8c0 .133.08.2.24.2h1.82zm4.253 2.36c-.08 0-.12-.04-.12-.12a3.05 3.05 0 0 1 .08-.7c.067-.24.147-.367.24-.38l3.84-.5c.107 0 .16.04.16.12a2.56 2.56 0 0 1-.1.76c-.067.2-.173.307-.32.32l-.52.08-3.26.42zm9.068 3.82c-.067 0-.187-.253-.36-.76-.067-.133-.173-.433-.32-.9l-.18-.5-1.14-2.88-.8-1.96c-.093-.24-.24-.453-.44-.64-.187-.2-.38-.327-.58-.38-.133-.053-.227-.1-.28-.14s-.08-.1-.08-.18c0-.12.133-.18.4-.18.347 0 .607.02.78.06.213.027.44.04.68.04a6.26 6.26 0 0 0 .7-.04c.2-.04.467-.06.8-.06.267 0 .4.06.4.18a.25.25 0 0 1-.12.22 3.31 3.31 0 0 1-.34.14.55.55 0 0 0-.3.3 1.25 1.25 0 0 0-.1.52c0 .213.027.393.08.54l1.58 4.2c.027.013.047.013.06 0l1.52-3.9c.107-.28.16-.553.16-.82 0-.253-.04-.433-.12-.54-.08-.12-.213-.22-.4-.3-.187-.067-.313-.12-.38-.16a.27.27 0 0 1-.08-.2c0-.12.133-.18.4-.18.053 0 .2.013.44.04l1.02.06c.16 0 .42-.02.78-.06.16-.027.293-.04.4-.04.267 0 .4.06.4.18 0 .08-.033.147-.1.2a1.16 1.16 0 0 1-.36.16c-.213.067-.44.227-.68.48a2.81 2.81 0 0 0-.56.86l-1.56 3.76-.42 1.06-.34.92c-.027.08-.093.233-.2.46l-.24.44h-.12zm6.537-.14c-.227 0-.467-.093-.72-.28-.253-.173-.467-.393-.64-.66-.16-.28-.24-.54-.24-.78 0-.413.107-.74.32-.98.227-.24.593-.467 1.1-.68l2.04-.84c.253-.107.407-.2.46-.28s.087-.253.1-.52l.04-1.28c.013-.36-.087-.66-.3-.9-.213-.253-.507-.38-.88-.38a1.88 1.88 0 0 0-.6.1c-.2.067-.367.153-.5.26-.133.093-.2.287-.2.58l.02.36c0 .107-.173.253-.52.44-.333.173-.6.26-.8.26-.067 0-.12-.013-.16-.04-.04-.04-.06-.087-.06-.14 0-.213.067-.44.2-.68.147-.253.347-.487.6-.7.453-.413.96-.753 1.52-1.02.573-.267 1.06-.4 1.46-.4.48 0 .873.173 1.18.52.32.333.473.753.46 1.26l-.1 4.8c-.013.28.047.507.18.68s.313.26.54.26c.333 0 .58-.073.74-.22.067-.067.12-.1.16-.1.067 0 .12.02.16.06s.06.093.06.16c0 .053-.02.127-.06.22a.85.85 0 0 1-.16.22 2.51 2.51 0 0 1-.7.5c-.24.133-.467.2-.68.2-.613 0-1.1-.347-1.46-1.04h-.06c-.44.36-.86.62-1.26.78-.4.173-.813.26-1.24.26zm.94-.96c.467 0 .86-.16 1.18-.48.08-.08.14-.18.18-.3s.067-.293.08-.52l.04-.98v-.12c0-.107-.013-.18-.04-.22-.027-.053-.073-.08-.14-.08-.08 0-.213.033-.4.1-.667.24-1.147.493-1.44.76s-.44.527-.44.78c0 .333.093.593.28.78a.99.99 0 0 0 .7.28zm5.488.74c-.267 0-.4-.06-.4-.18 0-.093.033-.16.1-.2.08-.053.2-.107.36-.16.293-.093.507-.18.64-.26.147-.093.22-.26.22-.5v-10.08c0-.84-.307-1.327-.92-1.46-.053-.013-.093-.04-.12-.08-.027-.053-.04-.113-.04-.18 0-.133.047-.213.14-.24.52-.12 1.113-.32 1.78-.6l.48-.18c.053-.027.093-.04.12-.04s.047.02.06.06c.027.027.04.053.04.08 0 .08-.027.333-.08.76-.04.427-.06 1.08-.06 1.96v10c0 .24.067.407.2.5a3.94 3.94 0 0 0 .66.26c.16.053.273.107.34.16.08.04.12.107.12.2 0 .12-.133.18-.4.18a5.09 5.09 0 0 1-.86-.06l-.76-.04a8.43 8.43 0 0 0-.76.04c-.213.04-.5.06-.86.06zm11.345.32c-.093 0-.14-.053-.14-.16l.04-.54a4.8 4.8 0 0 0 .06-.7v-.12c-.507.507-1.027.873-1.56 1.1a4.65 4.65 0 0 1-1.74.32c-.68 0-1.233-.207-1.66-.62-.413-.413-.62-1-.62-1.76v-4.06c0-.293-.067-.527-.2-.7s-.353-.32-.66-.44c-.173-.053-.26-.16-.26-.32 0-.187.1-.293.3-.32l.98-.1a13.52 13.52 0 0 0 1-.22l.16-.02c.147 0 .213.093.2.28-.08.613-.12 1.127-.12 1.54v3.9c0 .48.173.907.52 1.28.347.36.733.54 1.16.54.4 0 .72-.02.96-.06.253-.053.493-.167.72-.34a2.93 2.93 0 0 0 .62-.6c.187-.24.28-.54.28-.9v-3.66c0-.36-.153-.613-.46-.76-.293-.16-.587-.24-.88-.24-.28 0-.42-.113-.42-.34 0-.2.14-.3.42-.3l1.36-.08c.347-.053.713-.133 1.1-.24.08-.027.147-.04.2-.04.067 0 .127.02.18.06a.19.19 0 0 1 .08.16l-.04.18-.1.64-.04.74v4.62c0 .667.12 1 .36 1l.46-.04.46-.02c.2 0 .3.087.3.26 0 .107-.027.18-.08.22-.04.027-.107.047-.2.06-.453.067-.853.153-1.2.26s-.727.247-1.14.42c-.16.08-.293.12-.4.12zm7.487-.08c-.72 0-1.36-.18-1.92-.54-.547-.36-.974-.867-1.28-1.52-.307-.667-.46-1.433-.46-2.3 0-.747.173-1.447.52-2.1.36-.653.833-1.167 1.42-1.54.586-.387 1.226-.58 1.92-.58.8 0 1.453.24 1.96.72.52.467.78 1.067.78 1.8 0 .413-.2.62-.6.62h-4.22c-.187 0-.32.053-.4.16-.067.093-.1.287-.1.58a3.83 3.83 0 0 0 .4 1.74c.28.533.653.96 1.12 1.28a2.84 2.84 0 0 0 1.56.46c.786 0 1.44-.3 1.96-.9.08-.107.153-.16.22-.16.106 0 .16.067.16.2 0 .253-.12.533-.36.84-.294.387-.68.693-1.16.92-.48.213-.987.32-1.52.32zm-.02-6.06c.626 0 1.12-.033 1.48-.1.106-.013.16-.16.16-.44 0-.387-.174-.713-.52-.98-.334-.28-.734-.42-1.2-.42-.294 0-.6.093-.92.28a2.42 2.42 0 0 0-.76.66c-.2.267-.3.533-.3.8 0 .133.08.2.24.2h1.82zm8.097 5.86c-.174 0-.314-.027-.42-.08-.107-.04-.16-.1-.16-.18 0-.173.22-.327.66-.46a3.21 3.21 0 0 0 1-.5c.28-.227.52-.573.72-1.04l1.84-4.42 1.9-4.98c.146-.413.24-.8.28-1.16l.28-.08a1.71 1.71 0 0 0 .44-.22c.106-.08.186-.2.24-.36l.14-.32c.013-.013.026-.013.04 0 .026 0 .046.007.06.02.026.067.046.14.06.22l.08.22 3.56 10.68c.253.733.533 1.233.84 1.5.306.253.7.42 1.18.5.213.04.373.107.48.2.12.08.18.167.18.26 0 .133-.194.2-.58.2l-1.08-.04a26.16 26.16 0 0 0-1.7-.08l-2.1.02c-.387 0-.58-.08-.58-.24 0-.08.06-.153.18-.22.133-.08.293-.133.48-.16.813-.133 1.22-.433 1.22-.9 0-.427-.26-1.507-.78-3.24-.027-.093-.08-.153-.16-.18-.067-.027-.194-.04-.38-.04h-3.78c-.147 0-.26.12-.34.36a36.31 36.31 0 0 0-.52 1.68l-.3 1.2a.95.95 0 0 0 .32.72c.226.2.506.34.84.42.24.067.406.127.5.18.106.053.16.127.16.22 0 .147-.194.22-.58.22a7.6 7.6 0 0 1-.6-.02l-1.22-.02-.76.02a6.5 6.5 0 0 1-.6.04l-1.04.06zm7.78-5.74c.08 0 .146-.007.2-.02s.08-.04.08-.08l-.04-.2-1.56-4.88c-.08-.24-.14-.36-.18-.36-.027 0-.08.113-.16.34l-1.82 4.9-.04.16c0 .067.026.107.08.12.066.013.18.02.34.02h3.1zm8.407 5.92c-.413 0-.8-.067-1.16-.2-.36-.12-.666-.293-.92-.52-.106-.213-.18-.747-.22-1.6 0-.12.087-.18.26-.18.147 0 .227.047.24.14.16.613.42 1.073.78 1.38.374.293.774.44 1.2.44.387 0 .714-.127.98-.38a1.3 1.3 0 0 0 .42-.98c0-.347-.12-.647-.36-.9-.226-.267-.646-.593-1.26-.98-.693-.427-1.186-.82-1.48-1.18-.28-.373-.42-.807-.42-1.3 0-.667.234-1.213.7-1.64.467-.44 1.134-.66 2-.66.374 0 .694.04.96.12.28.067.494.153.64.26.107.147.194.38.26.7.08.307.12.6.12.88 0 .093-.066.14-.2.14-.08 0-.16-.013-.24-.04-.08-.04-.126-.087-.14-.14-.186-.453-.413-.793-.68-1.02-.253-.227-.566-.34-.94-.34-.346 0-.646.107-.9.32s-.38.5-.38.86c0 .32.094.6.28.84.2.227.567.493 1.1.8.84.48 1.434.913 1.78 1.3.347.373.52.853.52 1.44 0 .72-.273 1.307-.82 1.76s-1.253.68-2.12.68zm6.465 0c-.413 0-.8-.067-1.16-.2-.36-.12-.667-.293-.92-.52-.107-.213-.18-.747-.22-1.6 0-.12.087-.18.26-.18.147 0 .227.047.24.14.16.613.42 1.073.78 1.38.373.293.773.44 1.2.44a1.37 1.37 0 0 0 .98-.38 1.3 1.3 0 0 0 .42-.98c0-.347-.12-.647-.36-.9-.227-.267-.647-.593-1.26-.98-.693-.427-1.187-.82-1.48-1.18-.28-.373-.42-.807-.42-1.3 0-.667.233-1.213.7-1.64.467-.44 1.133-.66 2-.66.373 0 .693.04.96.12.28.067.493.153.64.26.107.147.193.38.26.7.08.307.12.6.12.88 0 .093-.067.14-.2.14-.08 0-.16-.013-.24-.04-.08-.04-.127-.087-.14-.14-.187-.453-.413-.793-.68-1.02-.253-.227-.567-.34-.94-.34-.347 0-.647.107-.9.32s-.38.5-.38.86c0 .32.093.6.28.84.2.227.567.493 1.1.8.84.48 1.433.913 1.78 1.3.347.373.52.853.52 1.44 0 .72-.273 1.307-.82 1.76s-1.253.68-2.12.68zm7.845.02c-.72 0-1.36-.18-1.92-.54-.547-.36-.973-.867-1.28-1.52-.307-.667-.46-1.433-.46-2.3 0-.747.173-1.447.52-2.1.36-.653.833-1.167 1.42-1.54.587-.387 1.227-.58 1.92-.58.8 0 1.453.24 1.96.72.52.467.78 1.067.78 1.8 0 .413-.2.62-.6.62h-4.22c-.187 0-.32.053-.4.16-.067.093-.1.287-.1.58a3.83 3.83 0 0 0 .4 1.74c.28.533.653.96 1.12 1.28a2.84 2.84 0 0 0 1.56.46 2.48 2.48 0 0 0 1.96-.9c.08-.107.153-.16.22-.16.107 0 .16.067.16.2 0 .253-.12.533-.36.84-.293.387-.68.693-1.16.92-.48.213-.987.32-1.52.32zm-.02-6.06c.627 0 1.12-.033 1.48-.1.107-.013.16-.16.16-.44 0-.387-.173-.713-.52-.98-.333-.28-.733-.42-1.2-.42-.293 0-.6.093-.92.28a2.42 2.42 0 0 0-.76.66c-.2.267-.3.533-.3.8 0 .133.08.2.24.2h1.82zm7.333 6.04c-.667 0-1.18-.2-1.54-.6-.36-.413-.54-1.007-.54-1.78v-4.64c0-.12-.047-.2-.14-.24-.08-.04-.247-.06-.5-.06h-.12c-.067 0-.127-.04-.18-.12-.04-.08-.06-.173-.06-.28 0-.027.013-.06.04-.1a1.2 1.2 0 0 1 .1-.12c.72-.507 1.313-1.04 1.78-1.6.053-.067.107-.12.16-.16.053-.053.113-.08.18-.08.187 0 .273.073.26.22l-.1.9v.08c0 .12.04.2.12.24s.2.06.36.06h2.28c.053 0 .1.047.14.14.04.08.06.18.06.3s-.02.24-.06.36c-.04.107-.087.16-.14.16h-1.98c-.36 0-.587.027-.68.08-.08.053-.12.213-.12.48v3.94c0 .547.113.973.34 1.28.227.293.553.44.98.44.373 0 .667-.027.88-.08a1.55 1.55 0 0 0 .6-.28l.08-.04c.093 0 .14.093.14.28 0 .08-.12.227-.36.44-.24.2-.54.38-.9.54a2.55 2.55 0 0 1-1.08.24zm5.39 0c-.413 0-.8-.067-1.16-.2-.36-.12-.667-.293-.92-.52-.107-.213-.18-.747-.22-1.6 0-.12.087-.18.26-.18.147 0 .227.047.24.14.16.613.42 1.073.78 1.38.373.293.773.44 1.2.44a1.37 1.37 0 0 0 .98-.38 1.3 1.3 0 0 0 .42-.98c0-.347-.12-.647-.36-.9-.227-.267-.647-.593-1.26-.98-.693-.427-1.187-.82-1.48-1.18-.28-.373-.42-.807-.42-1.3 0-.667.233-1.213.7-1.64.467-.44 1.133-.66 2-.66.373 0 .693.04.96.12.28.067.493.153.64.26.107.147.193.38.26.7.08.307.12.6.12.88 0 .093-.067.14-.2.14-.08 0-.16-.013-.24-.04-.08-.04-.127-.087-.14-.14-.187-.453-.413-.793-.68-1.02-.253-.227-.567-.34-.94-.34-.347 0-.647.107-.9.32s-.38.5-.38.86c0 .32.093.6.28.84.2.227.567.493 1.1.8.84.48 1.433.913 1.78 1.3.347.373.52.853.52 1.44 0 .72-.273 1.307-.82 1.76s-1.253.68-2.12.68z"/><path d="M292.078 199.3a7.73 7.73 0 0 1-2.7-.48 7.48 7.48 0 0 1-2.32-1.36c-.68-.6-1.22-1.313-1.62-2.14-.387-.84-.58-1.767-.58-2.78 0-.973.206-1.873.62-2.7a6.81 6.81 0 0 1 1.7-2.16c.72-.613 1.54-1.087 2.46-1.42.933-.347 1.913-.52 2.94-.52l1.32.06c.36.04.706.1 1.04.18l1.2.28c.2.053.34.133.42.24.093.107.146.253.16.44l.1 1c.04.347.066.78.08 1.3.013.093-.034.173-.14.24-.094.053-.2.067-.32.04-.107-.027-.18-.113-.22-.26a7.37 7.37 0 0 0-.46-1.3c-.174-.373-.434-.68-.78-.92-.334-.227-.74-.393-1.22-.5-.467-.12-.974-.18-1.52-.18-.774 0-1.494.16-2.16.48a5.15 5.15 0 0 0-1.7 1.28c-.467.533-.834 1.14-1.1 1.82a5.75 5.75 0 0 0-.401 2.12 7.77 7.77 0 0 0 .381 2.4 7.59 7.59 0 0 0 1.12 2.14 6.08 6.08 0 0 0 1.74 1.52 4.62 4.62 0 0 0 2.26.56c.96 0 1.753-.22 2.38-.66s1.16-1.053 1.6-1.84c.093-.173.226-.26.4-.26.186 0 .28.107.28.32 0 .107-.027.28-.08.52-.054.227-.127.473-.22.74l-.24.68c-.094.187-.174.307-.24.36-.054.053-.187.113-.4.18-.494.2-1.087.347-1.78.44-.68.093-1.347.14-2 .14zm7.38-.2c-.174 0-.314-.02-.42-.06-.107-.027-.16-.08-.16-.16 0-.16.22-.28.66-.36.506-.093.88-.247 1.12-.46s.36-.56.36-1.04v-9c0-.48-.1-.82-.3-1.02-.187-.2-.534-.347-1.04-.44-.227-.04-.394-.093-.5-.16s-.16-.147-.16-.24c0-.08.053-.133.16-.16.106-.04.246-.06.42-.06l1.28.02 1.04.04h2.6l1.36-.02 1.14-.02.56-.02c.066 0 .14.013.22.04s.126.073.14.14l.2 1.12c.066.36.1.673.1.94 0 .12-.034.2-.1.24-.054.04-.114.06-.18.06s-.114-.013-.14-.04c-.027-.04-.054-.093-.08-.16l-.2-.64c-.067-.213-.147-.367-.24-.46-.187-.213-.394-.353-.62-.42a2.15 2.15 0 0 0-.72-.12h-2.62c-.107 0-.254.06-.44.18s-.28.273-.28.46v4.24c0 .12.033.227.1.32.08.08.166.12.26.12h1.98c.386 0 .653-.067.8-.2.146-.147.266-.407.36-.78.08-.293.2-.44.36-.44.053 0 .106.027.16.08.066.053.1.133.1.24a7.2 7.2 0 0 1-.02.36l-.02.58-.02.46v.54l.02.62.02.38c0 .093-.014.173-.04.24-.014.067-.06.1-.14.1-.2 0-.354-.213-.46-.64-.08-.307-.187-.533-.32-.68s-.334-.22-.6-.22h-1.86c-.227 0-.4.033-.52.1-.107.053-.16.193-.16.42v3.84c0 .507.106.86.32 1.06.213.187.546.28 1 .28h1.48c.426 0 .78-.02 1.06-.06a2.15 2.15 0 0 0 .76-.28c.213-.147.4-.34.56-.58.173-.24.366-.56.58-.96a.74.74 0 0 1 .14-.2c.053-.053.113-.073.18-.06s.12.047.16.1c.04.04.06.1.06.18 0 .12-.034.333-.1.64a10.09 10.09 0 0 1-.26.92l-.26.76c-.04.093-.08.173-.12.24-.027.067-.08.1-.16.1-.64 0-1.234-.007-1.78-.02l-1.56-.04-1.46-.04-1.46-.02-.76.02-.66.06c-.227.027-.52.04-.88.04zm11.07 0c-.174 0-.314-.027-.42-.08-.094-.04-.14-.093-.14-.16 0-.12.06-.2.18-.24l.26-.1c.52-.107.92-.26 1.2-.46.28-.213.42-.54.42-.98v-9.28c0-.32-.034-.553-.1-.7-.067-.16-.187-.273-.36-.34-.174-.08-.427-.147-.76-.2-.44-.08-.66-.213-.66-.4 0-.08.053-.133.16-.16.106-.04.246-.06.42-.06l.86.02.64.04h1.6l.74-.04.92-.02c.173 0 .313.02.42.06.106.027.16.08.16.16 0 .093-.054.173-.16.24s-.274.12-.5.16c-.494.093-.914.207-1.26.34-.347.12-.52.373-.52.76v9.42c0 .413.093.72.28.92s.606.3 1.26.3h2.48c.36 0 .673-.053.94-.16.28-.12.486-.24.62-.36.266-.227.46-.427.58-.6.133-.187.286-.46.46-.82.026-.08.08-.2.16-.36.093-.16.186-.24.28-.24.08 0 .14.04.18.12s.06.16.06.24c0 .013-.007.033-.02.06v.04l-.26.94-.18.8-.1.8c-.014.093-.04.173-.08.24-.027.067-.094.1-.2.1a90.58 90.58 0 0 1-1.92-.02l-1.78-.04c-.56 0-1.1-.007-1.62-.02l-1.54-.02-1.14.02-1.1.04-.46.04zm18.12.18c-.88 0-1.72-.153-2.52-.46a6.75 6.75 0 0 1-2.12-1.34c-.613-.587-1.1-1.28-1.46-2.08-.36-.813-.54-1.713-.54-2.7 0-.907.147-1.773.44-2.6.294-.84.727-1.587 1.3-2.24s1.287-1.173 2.14-1.56 1.834-.58 2.94-.58c.88 0 1.72.16 2.52.48a6.29 6.29 0 0 1 2.12 1.34c.614.573 1.1 1.267 1.46 2.08.36.8.54 1.693.54 2.68 0 .893-.146 1.76-.44 2.6a6.7 6.7 0 0 1-1.3 2.24c-.573.653-1.286 1.173-2.14 1.56s-1.833.58-2.94.58zm.3-.8c1.027 0 1.88-.213 2.56-.64.68-.44 1.187-1.047 1.52-1.82.347-.787.52-1.7.52-2.74 0-.92-.106-1.787-.32-2.6s-.533-1.527-.96-2.14c-.413-.627-.933-1.113-1.56-1.46s-1.36-.52-2.2-.52c-1 0-1.84.213-2.52.64s-1.193 1.027-1.54 1.8c-.346.76-.52 1.66-.52 2.7 0 .933.1 1.807.3 2.62.214.813.527 1.533.94 2.16.427.627.954 1.12 1.58 1.48.627.347 1.36.52 2.2.52zm15.658.82c-.68 0-1.286-.12-1.82-.36-.52-.253-.926-.593-1.22-1.02s-.44-.913-.44-1.46c0-1.067.314-1.94.94-2.62.64-.68 1.44-1.24 2.4-1.68l.4-.18-.3-.32c-.12-.147-.286-.327-.5-.54a4.35 4.35 0 0 1-.56-.76c-.16-.307-.24-.653-.24-1.04 0-.467.134-.873.4-1.22.28-.347.634-.613 1.06-.8s.867-.28 1.32-.28c.574 0 1.047.133 1.42.4.374.253.654.573.84.96.187.373.28.733.28 1.08a1.73 1.73 0 0 1-.54 1.32c-.373.373-.893.68-1.56.92l-.28.1.26.28 1.38 1.42c.414.4.82.893 1.22 1.48l.24.36.36-.38.98-1.16.86-1.16c.24-.36.36-.587.36-.68 0-.08-.053-.187-.16-.32a.57.57 0 0 0-.4-.24c-.026-.013-.073-.047-.14-.1s-.1-.093-.1-.12c0-.107.06-.167.18-.18l.26-.04c.04 0 .154.007.34.02l.62.06.46.02a4.04 4.04 0 0 0 .66-.06l.68-.16a2.62 2.62 0 0 1 .58-.08c.027 0 .074.02.14.06s.1.08.1.12c0 .08-.06.16-.18.24s-.226.127-.32.14c-.306.013-.586.087-.84.22-.253.12-.46.253-.62.4-.053.04-.206.193-.46.46l-.92.96-1.02 1.08-.84.9-.34.36.34.48c.427.613.847 1.107 1.26 1.48.414.36.874.54 1.38.54.28 0 .547-.027.8-.08.267-.053.52-.147.76-.28.054-.027.107-.047.16-.06.067-.027.127-.04.18-.04.094 0 .154.02.18.06.04.027.06.087.06.18 0 .107-.14.267-.42.48s-.62.407-1.02.58c-.386.173-.766.26-1.14.26-.493 0-.906-.087-1.24-.26-.333-.16-.64-.407-.92-.74l-.92-1.32-.26-.42-.12.12-1.2 1.28a5.24 5.24 0 0 1-1.22.98c-.44.24-.973.36-1.6.36zm.52-1.3c.667 0 1.24-.14 1.72-.42.494-.28.987-.68 1.48-1.2l.18-.18-.24-.38a10.44 10.44 0 0 0-1.26-1.54l-1.6-1.7-.24-.26-.42.16c-.613.24-1.073.547-1.38.92-.293.36-.486.753-.58 1.18-.08.413-.12.82-.12 1.22 0 .613.227 1.133.68 1.56s1.047.64 1.78.64zm.82-6.52l.26-.12c.374-.173.647-.447.82-.82.187-.387.28-.78.28-1.18 0-.467-.113-.887-.34-1.26-.213-.373-.553-.56-1.02-.56a1.62 1.62 0 0 0-1.06.38c-.306.24-.46.54-.46.9 0 .267.027.507.08.72s.167.44.34.68.434.547.78.92l.32.34zm15.88 7.8c-.24 0-.486-.093-.74-.28a2.77 2.77 0 0 1-.62-.68c-.16-.267-.24-.52-.24-.76 0-.427.114-.76.34-1s.587-.46 1.08-.66l2.04-.84c.267-.107.42-.2.46-.28.054-.08.087-.253.1-.52l.04-1.28c.014-.347-.086-.647-.3-.9-.2-.253-.493-.38-.88-.38a1.88 1.88 0 0 0-.6.1c-.2.067-.366.153-.5.26-.08.053-.133.133-.16.24s-.04.22-.04.34v.18c.014.067.02.127.02.18 0 .067-.086.16-.26.28-.16.107-.346.207-.56.3-.2.08-.366.12-.5.12-.066 0-.12-.013-.16-.04-.04-.04-.06-.087-.06-.14 0-.213.067-.44.2-.68.147-.253.347-.487.6-.7a6.06 6.06 0 0 1 1-.74c.36-.213.714-.38 1.06-.5s.654-.18.92-.18a1.5 1.5 0 0 1 1.18.52c.32.333.474.753.46 1.26l-.1 4.8c-.013.28.047.507.18.68.147.173.327.26.54.26.334 0 .58-.073.74-.22.067-.067.12-.1.16-.1.067 0 .12.02.16.06s.06.093.06.16c0 .147-.073.293-.22.44-.213.213-.446.38-.7.5-.24.133-.466.2-.68.2-.613 0-1.1-.347-1.46-1.04h-.06c-.44.36-.86.62-1.26.78-.4.173-.813.26-1.24.26zm.94-.96a1.72 1.72 0 0 0 .68-.12 1.88 1.88 0 0 0 .5-.36c.067-.067.12-.153.16-.26.054-.12.087-.307.1-.56l.04-.98c.014-.147.007-.253-.02-.32s-.08-.1-.16-.1c-.026 0-.073.007-.14.02s-.153.04-.26.08c-.706.253-1.2.52-1.48.8-.266.267-.4.513-.4.74 0 .347.1.613.3.8.214.173.44.26.68.26zm11.85 1.06c-.027 0-.074-.027-.14-.08-.054-.053-.08-.093-.08-.12a5.33 5.33 0 0 1 .04-.56c.04-.253.06-.467.06-.64v-.12c-.2.307-.52.62-.96.94s-.994.48-1.66.48c-.76 0-1.42-.2-1.98-.6-.547-.4-.974-.913-1.28-1.54-.294-.627-.44-1.273-.44-1.94a4.59 4.59 0 0 1 .54-2.18c.36-.68.873-1.233 1.54-1.66.68-.427 1.486-.64 2.42-.64.266 0 .533.027.8.08.28.04.493.087.64.14.12.04.206.06.26.06.093 0 .14-.16.14-.48v-2.84c0-.547-.087-.913-.26-1.1s-.42-.307-.74-.36c-.12-.027-.18-.113-.18-.26 0-.12.053-.2.16-.24l1.38-.42.78-.32c.053-.027.1-.04.14-.04a.56.56 0 0 1 .12-.02c.08 0 .126.04.14.12a3.9 3.9 0 0 1-.04.42l-.06.84-.04 1.46v9.04c0 .453.033.787.1 1 .066.2.173.3.32.3a4.96 4.96 0 0 0 .34-.02l.52-.04c.24-.013.36.047.36.18 0 .093-.034.18-.1.26-.054.067-.114.1-.18.1a7.59 7.59 0 0 0-1.1.24c-.36.093-.774.24-1.24.44l-.22.1c-.027.013-.06.02-.1.02zm-2.02-1.14c.346 0 .686-.087 1.02-.26.333-.187.626-.427.88-.72l.02-3.6c0-.36-.107-.713-.32-1.06-.2-.347-.487-.627-.86-.84-.36-.227-.787-.34-1.28-.34-.307 0-.654.093-1.04.28s-.72.52-1 1c-.28.467-.42 1.147-.42 2.04 0 .76.113 1.373.34 1.84.226.453.5.8.82 1.04.333.24.666.407 1 .5.346.08.626.12.84.12zm12.137 1.14c-.027 0-.073-.027-.14-.08-.053-.053-.08-.093-.08-.12a5.33 5.33 0 0 1 .04-.56c.04-.253.06-.467.06-.64v-.12c-.2.307-.52.62-.96.94s-.993.48-1.66.48c-.76 0-1.42-.2-1.98-.6-.547-.4-.973-.913-1.28-1.54-.293-.627-.44-1.273-.44-1.94a4.59 4.59 0 0 1 .54-2.18c.36-.68.873-1.233 1.54-1.66.68-.427 1.487-.64 2.42-.64.267 0 .533.027.8.08.28.04.493.087.64.14.12.04.207.06.26.06.093 0 .14-.16.14-.48v-2.84c0-.547-.087-.913-.26-1.1s-.42-.307-.74-.36c-.12-.027-.18-.113-.18-.26 0-.12.053-.2.16-.24l1.38-.42.78-.32c.053-.027.1-.04.14-.04a.56.56 0 0 1 .12-.02c.08 0 .127.04.14.12a3.65 3.65 0 0 1-.04.42l-.06.84-.04 1.46v9.04c0 .453.033.787.1 1 .067.2.173.3.32.3.067 0 .18-.007.34-.02l.52-.04c.24-.013.36.047.36.18 0 .093-.033.18-.1.26-.053.067-.113.1-.18.1a7.62 7.62 0 0 0-1.1.24c-.36.093-.773.24-1.24.44l-.22.1c-.027.013-.06.02-.1.02zm-2.02-1.14a2.19 2.19 0 0 0 1.02-.26 3.27 3.27 0 0 0 .88-.72l.02-3.6c0-.36-.107-.713-.32-1.06-.2-.347-.487-.627-.86-.84-.36-.227-.787-.34-1.28-.34-.307 0-.653.093-1.04.28s-.72.52-1 1c-.28.467-.42 1.147-.42 2.04 0 .76.113 1.373.34 1.84.227.453.5.8.82 1.04.333.24.667.407 1 .5.347.08.627.12.84.12zm5.877.82c-.12 0-.22-.02-.3-.06-.067-.027-.1-.08-.1-.16 0-.107.047-.18.14-.22a3.02 3.02 0 0 1 .32-.1c.28-.067.493-.147.64-.24.147-.107.22-.28.22-.52v-4.34c0-.36-.067-.68-.2-.96-.12-.28-.353-.447-.7-.5a.3.3 0 0 1-.16-.08c-.027-.04-.04-.1-.04-.18 0-.147.06-.227.18-.24.533-.12.973-.28 1.32-.48l.78-.52c.12-.093.213-.14.28-.14.08 0 .12.033.12.1 0 .107-.02.32-.06.64l-.08 1.04-.04 1.02v4.64c0 .227.073.393.22.5.16.107.373.193.64.26a1.99 1.99 0 0 1 .3.1c.107.04.16.113.16.22 0 .147-.133.22-.4.22-.253 0-.46-.013-.62-.04l-.44-.04c-.133-.013-.32-.02-.56-.02l-.56.02-.44.04c-.147.027-.353.04-.62.04zm1.6-10.38c-.28 0-.52-.093-.72-.28-.187-.2-.28-.44-.28-.72 0-.293.093-.533.28-.72a.98.98 0 0 1 .72-.3.94.94 0 0 1 1.02 1.02.98.98 0 0 1-.3.72c-.187.187-.427.28-.72.28zm6.202 10.6c-.653 0-1.166-.2-1.54-.6-.36-.4-.54-.993-.54-1.78v-4.64c0-.107-.04-.18-.12-.22-.08-.053-.253-.08-.52-.08h-.12c-.066 0-.126-.04-.18-.12-.04-.093-.06-.187-.06-.28 0-.027.02-.067.06-.12l.08-.1a8.36 8.36 0 0 0 .72-.56l.6-.54.46-.5.16-.16c.054-.053.114-.08.18-.08a.39.39 0 0 1 .18.04c.067.027.094.087.08.18l-.1.9c-.013.147.02.247.1.3s.207.08.38.08h2.28c.054 0 .1.047.14.14.04.08.06.18.06.3s-.02.24-.06.36c-.04.107-.086.16-.14.16h-1.98c-.333 0-.553.027-.66.08-.093.053-.14.213-.14.48v3.94c0 .533.114.953.34 1.26s.554.46.98.46c.387 0 .687-.027.9-.08a2.12 2.12 0 0 0 .58-.28c.027-.027.054-.04.08-.04.054 0 .087.033.1.1a.39.39 0 0 1 .04.18c0 .067-.113.2-.34.4-.213.2-.5.387-.86.56-.346.173-.726.26-1.14.26zm3.39-.22c-.12 0-.22-.02-.3-.06-.066-.027-.1-.08-.1-.16 0-.107.047-.18.14-.22.107-.04.214-.073.32-.1.28-.067.494-.147.64-.24.147-.107.22-.28.22-.52v-4.34c0-.36-.066-.68-.2-.96-.12-.28-.353-.447-.7-.5-.066-.013-.12-.04-.16-.08-.026-.04-.04-.1-.04-.18 0-.147.06-.227.18-.24.534-.12.974-.28 1.32-.48l.78-.52c.12-.093.214-.14.28-.14.08 0 .12.033.12.1 0 .107-.02.32-.06.64l-.08 1.04-.04 1.02v4.64c0 .227.074.393.22.5.16.107.374.193.64.26a1.99 1.99 0 0 1 .3.1c.107.04.16.113.16.22 0 .147-.133.22-.4.22-.253 0-.46-.013-.62-.04l-.44-.04c-.133-.013-.32-.02-.56-.02l-.56.02-.44.04c-.146.027-.353.04-.62.04zm1.6-10.38c-.28 0-.52-.093-.72-.28a1.02 1.02 0 0 1-.28-.72c0-.293.094-.533.28-.72a.98.98 0 0 1 .72-.3c.294 0 .534.1.72.3a.94.94 0 0 1 .3.72.98.98 0 0 1-.3.72.97.97 0 0 1-.72.28zm7.103 10.6c-.747 0-1.42-.173-2.02-.52s-1.08-.82-1.44-1.42c-.347-.613-.52-1.307-.52-2.08 0-.56.106-1.107.32-1.64.226-.533.54-1.02.94-1.46a4.45 4.45 0 0 1 1.4-1.04c.533-.267 1.106-.4 1.72-.4.773 0 1.466.187 2.08.56.626.373 1.12.867 1.48 1.48.373.6.56 1.26.56 1.98 0 .773-.174 1.507-.52 2.2-.334.693-.834 1.26-1.5 1.7-.667.427-1.5.64-2.5.64zm.42-.6c.453 0 .86-.087 1.22-.26s.64-.453.84-.84c.16-.307.266-.68.32-1.12a10.4 10.4 0 0 0 .08-1.24c0-.64-.12-1.253-.36-1.84-.227-.6-.554-1.087-.98-1.46a2.09 2.09 0 0 0-1.48-.58c-.36 0-.687.06-.98.18-.28.107-.54.313-.78.62-.267.333-.44.74-.52 1.22s-.12.96-.12 1.44c0 .653.12 1.28.36 1.88.24.587.566 1.067.98 1.44s.886.56 1.42.56zm5.682.38c-.12 0-.22-.02-.3-.06-.067-.027-.1-.08-.1-.16 0-.107.04-.173.12-.2.08-.04.193-.08.34-.12a3.06 3.06 0 0 0 .58-.22c.187-.093.28-.273.28-.54v-4.3c0-.36-.04-.667-.12-.92-.067-.253-.273-.427-.62-.52l-.14-.08c-.04-.04-.06-.1-.06-.18 0-.147.06-.227.18-.24.467-.12.847-.267 1.14-.44a8.88 8.88 0 0 0 .86-.58.84.84 0 0 1 .1-.06c.04-.027.08-.04.12-.04.027 0 .047.013.06.04.027.027.04.06.04.1 0 .093-.02.287-.06.58l-.04.7v.16c.013.04.027.067.04.08.467-.44.96-.773 1.48-1 .533-.227 1.113-.34 1.74-.34.653 0 1.193.267 1.62.8s.64 1.193.64 1.98v4.26c0 .267.093.447.28.54l.58.22c.107.04.207.087.3.14.107.04.16.113.16.22 0 .08-.047.127-.14.14-.093.027-.18.04-.26.04-.267 0-.473-.013-.62-.04l-.42-.04c-.133-.013-.32-.02-.56-.02l-.56.02-.46.04c-.147.027-.353.04-.62.04-.067 0-.153-.013-.26-.04-.093-.013-.14-.06-.14-.14 0-.107.047-.18.14-.22l.32-.14.58-.22c.187-.093.28-.273.28-.54v-4.2c0-.587-.167-1.04-.5-1.36-.32-.333-.753-.507-1.3-.52-.48 0-.9.08-1.26.24-.36.147-.68.333-.96.56-.053.053-.093.127-.12.22-.027.08-.04.16-.04.24v4.82c0 .267.093.447.28.54a3.06 3.06 0 0 0 .58.22c.307.08.46.187.46.32 0 .08-.033.133-.1.16-.067.04-.167.06-.3.06-.267 0-.48-.013-.64-.04l-.42-.04c-.133-.013-.32-.02-.56-.02l-.56.02-.44.04c-.147.027-.353.04-.62.04zm12.027.22c-.24 0-.487-.093-.74-.28a2.75 2.75 0 0 1-.62-.68c-.16-.267-.24-.52-.24-.76 0-.427.113-.76.34-1s.586-.46 1.08-.66l2.04-.84c.266-.107.42-.2.46-.28.053-.08.086-.253.1-.52l.04-1.28c.013-.347-.087-.647-.3-.9-.2-.253-.494-.38-.88-.38a1.88 1.88 0 0 0-.6.1c-.2.067-.367.153-.5.26-.08.053-.134.133-.16.24s-.04.22-.04.34v.18a.96.96 0 0 1 .02.18c0 .067-.087.16-.26.28a3.6 3.6 0 0 1-.56.3c-.2.08-.367.12-.5.12-.067 0-.12-.013-.16-.04-.04-.04-.06-.087-.06-.14 0-.213.066-.44.2-.68a2.64 2.64 0 0 1 .6-.7c.306-.28.64-.527 1-.74s.713-.38 1.06-.5.653-.18.92-.18c.48 0 .873.173 1.18.52.32.333.473.753.46 1.26l-.1 4.8c-.014.28.046.507.18.68a.68.68 0 0 0 .54.26c.333 0 .58-.073.74-.22.066-.067.12-.1.16-.1.066 0 .12.02.16.06s.06.093.06.16c0 .147-.074.293-.22.44-.214.213-.447.38-.7.5-.24.133-.467.2-.68.2-.614 0-1.1-.347-1.46-1.04h-.06c-.44.36-.86.62-1.26.78-.4.173-.814.26-1.24.26zm.94-.96c.266 0 .493-.04.68-.12a1.91 1.91 0 0 0 .5-.36c.066-.067.12-.153.16-.26.053-.12.086-.307.1-.56l.04-.98c.013-.147.006-.253-.02-.32s-.08-.1-.16-.1c-.027 0-.074.007-.14.02s-.154.04-.26.08c-.707.253-1.2.52-1.48.8-.267.267-.4.513-.4.74 0 .347.1.613.3.8.213.173.44.26.68.26zm5.488.74a1.1 1.1 0 0 1-.26-.04c-.094-.013-.14-.06-.14-.14 0-.107.046-.18.14-.22.106-.053.213-.1.32-.14l.58-.22c.186-.093.28-.273.28-.54v-10.08c0-.387-.074-.707-.22-.96-.134-.267-.367-.433-.7-.5-.107-.027-.16-.113-.16-.26 0-.133.046-.213.14-.24l.9-.24.7-.28.66-.26c.053-.027.093-.04.12-.04s.046.02.06.06c.026.027.04.053.04.08 0 .12-.027.38-.08.78-.04.387-.06 1.033-.06 1.94v10c0 .267.093.447.28.54l.58.22a2.17 2.17 0 0 1 .3.14c.106.04.16.113.16.22 0 .08-.054.127-.16.14a.89.89 0 0 1-.24.04c-.254 0-.46-.013-.62-.04l-.44-.04a6.12 6.12 0 0 0-.56-.02l-.56.02-.44.04a3.65 3.65 0 0 1-.62.04zM319.29 218.3c-.666 0-1.273-.167-1.82-.5-.533-.347-.96-.813-1.28-1.4-.306-.6-.46-1.267-.46-2 0-.867.187-1.653.56-2.36.387-.707.9-1.267 1.54-1.68a3.74 3.74 0 0 1 2.12-.64c.867 0 1.627.233 2.28.7.16.12.24.247.24.38 0 .107-.046.227-.14.36s-.206.247-.34.34c-.133.08-.26.12-.38.12a.39.39 0 0 1-.2-.06l-.22-.16c-.293-.227-.62-.44-.98-.64s-.66-.3-.9-.3c-.653 0-1.186.307-1.6.92-.4.6-.6 1.393-.6 2.38 0 .627.134 1.193.4 1.7.28.507.647.907 1.1 1.2a2.84 2.84 0 0 0 1.54.44c.387 0 .72-.06 1-.18.28-.133.58-.36.9-.68.027-.027.06-.047.1-.06.04-.027.074-.04.1-.04.147 0 .22.093.22.28 0 .08-.026.173-.08.28-.04.093-.113.207-.22.34-.213.267-.466.5-.76.7a3.38 3.38 0 0 1-.98.42c-.346.093-.726.14-1.14.14zm4.572-.24c-.134 0-.234-.02-.3-.06-.067-.027-.1-.08-.1-.16 0-.107.04-.173.12-.2.08-.04.193-.08.34-.12.253-.067.44-.16.56-.28.133-.133.2-.293.2-.48v-4.3c0-.36-.054-.673-.16-.94s-.327-.433-.66-.5c-.054-.013-.1-.047-.14-.1s-.06-.107-.06-.16c0-.133.06-.213.18-.24.346-.107.706-.26 1.08-.46l.9-.52c.08-.053.14-.087.18-.1.053-.027.093-.04.12-.04.066 0 .1.047.1.14 0 .04-.007.14-.02.3l-.02.56-.02.64c0 .027.013.04.04.04a4.29 4.29 0 0 1 .7-.7c.266-.2.533-.36.8-.48.28-.12.546-.18.8-.18.28 0 .506.06.68.18.186.12.28.273.28.46 0 .133-.04.28-.12.44-.067.16-.16.3-.28.42s-.247.18-.38.18c-.08 0-.167-.013-.26-.04l-.3-.14-.32-.12a.91.91 0 0 0-.32-.06c-.32 0-.634.113-.94.34-.294.227-.44.673-.44 1.34v4.04c0 .173.093.32.28.44.186.107.446.213.78.32.146.04.26.08.34.12s.12.107.12.2c0 .147-.134.22-.4.22-.4 0-.707-.02-.92-.06-.2-.027-.474-.04-.82-.04l-.56.02-.44.04a3.65 3.65 0 0 1-.62.04zm6.98 5.64c-.254 0-.487-.067-.7-.2-.214-.12-.32-.327-.32-.62 0-.24.053-.453.16-.64.12-.173.286-.26.5-.26a1.46 1.46 0 0 1 .42.06 1.47 1.47 0 0 0 .38.06c.08 0 .146-.02.2-.06.066-.027.126-.08.18-.16l.5-.9c.2-.36.4-.767.6-1.22l.6-1.44a1.48 1.48 0 0 0 .06-.46 2.17 2.17 0 0 0-.02-.3 1.57 1.57 0 0 0-.06-.28l-2.32-5.86c-.094-.24-.22-.447-.38-.62-.147-.187-.32-.307-.52-.36-.107-.04-.214-.087-.32-.14-.094-.053-.14-.127-.14-.22 0-.08.046-.127.14-.14a1.1 1.1 0 0 1 .26-.04l.58.02c.133.013.253.033.36.06.12.013.293.02.52.02l.54-.02a3.13 3.13 0 0 1 .381-.06c.133-.013.333-.02.6-.02.08 0 .166.02.26.06.093.027.14.08.14.16 0 .093-.074.187-.22.28-.134.08-.254.133-.36.16-.134.04-.234.113-.3.22-.067.093-.1.233-.1.42 0 .08.02.18.06.3l.1.26 1.62 4c.026.08.066.12.12.12.04 0 .073-.04.1-.12l1.38-3.66c.04-.093.073-.213.1-.36a1.67 1.67 0 0 0 .06-.38c0-.253-.04-.427-.12-.52-.067-.107-.16-.187-.28-.24l-.38-.2c-.134-.093-.2-.187-.2-.28 0-.08.046-.133.14-.16.106-.04.193-.06.26-.06.186 0 .373.02.56.06.2.027.486.04.86.04l.54-.02.3-.06a2.24 2.24 0 0 1 .34-.02.89.89 0 0 1 .24.04c.106.013.16.06.16.14 0 .093-.054.167-.16.22a2.17 2.17 0 0 1-.3.14c-.2.053-.414.213-.64.48-.227.253-.407.54-.54.86l-2.72 6.48a16.23 16.23 0 0 1-.22.52l-.46 1.14-.62 1.46-.62 1.5c-.12.267-.294.467-.52.6-.227.147-.487.22-.78.22zm8.29 0c-.067 0-.153-.013-.26-.04-.107-.013-.16-.06-.16-.14a.26.26 0 0 1 .14-.24l.32-.12c.2-.067.393-.147.58-.24.187-.08.28-.253.28-.52v-10.14c0-.107-.033-.267-.1-.48-.053-.213-.147-.42-.28-.62a.79.79 0 0 0-.54-.36.18.18 0 0 1-.12-.1.35.35 0 0 1-.04-.16c0-.067.013-.12.04-.16s.06-.067.1-.08c.507-.12.94-.247 1.3-.38l1.02-.42h.02c0-.013.007-.02.02-.02.027 0 .053.02.08.06s.04.08.04.12c0 .12-.02.313-.06.58l-.04.62c0 .107.007.167.02.18.133-.133.373-.3.72-.5.36-.213.767-.4 1.22-.56.453-.173.887-.26 1.3-.26.693 0 1.28.187 1.76.56.493.36.867.833 1.12 1.42a4.21 4.21 0 0 1 .4 1.8 4.74 4.74 0 0 1-.34 1.76c-.227.56-.547 1.067-.96 1.52s-.893.82-1.44 1.1c-.547.267-1.133.4-1.76.4-.187 0-.413-.033-.68-.1-.253-.053-.507-.127-.76-.22-.24-.093-.427-.2-.56-.32-.013 0-.027.08-.04.24l-.04.46v4.06a.46.46 0 0 0 .2.4 1.31 1.31 0 0 0 .48.22l.48.14.3.12c.107.053.16.133.16.24 0 .08-.053.127-.16.14a1.16 1.16 0 0 1-.28.04c-.387 0-.713-.02-.98-.06a8.64 8.64 0 0 0-.9-.04l-.56.02-.42.04c-.147.027-.353.04-.62.04zm4.68-6.04c.2 0 .44-.06.72-.18.293-.12.58-.313.86-.58.293-.267.533-.627.72-1.08.2-.453.3-1.013.3-1.68 0-.773-.1-1.393-.3-1.86s-.447-.82-.74-1.06a2.37 2.37 0 0 0-.9-.48c-.307-.08-.567-.12-.78-.12a2.79 2.79 0 0 0-1 .2c-.333.133-.62.287-.86.46-.227.16-.34.287-.34.38l-.02.9-.02.86-.02.76v.5c0 .533.12 1.027.36 1.48.253.453.56.82.92 1.1.373.267.74.4 1.1.4zm8.67.62c-.653 0-1.167-.2-1.54-.6-.36-.4-.54-.993-.54-1.78v-4.64c0-.107-.04-.18-.12-.22-.08-.053-.253-.08-.52-.08h-.12c-.067 0-.127-.04-.18-.12-.04-.093-.06-.187-.06-.28 0-.027.02-.067.06-.12l.08-.1a8.36 8.36 0 0 0 .72-.56l.6-.54.46-.5.16-.16c.053-.053.113-.08.18-.08a.39.39 0 0 1 .18.04c.067.027.093.087.08.18l-.1.9c-.013.147.02.247.1.3s.207.08.38.08h2.28c.053 0 .1.047.14.14.04.08.06.18.06.3s-.02.24-.06.36c-.04.107-.087.16-.14.16h-1.98c-.333 0-.553.027-.66.08-.093.053-.14.213-.14.48v3.94c0 .533.113.953.34 1.26s.553.46.98.46c.387 0 .687-.027.9-.08.213-.067.407-.16.58-.28.027-.027.053-.04.08-.04.053 0 .087.033.1.1a.39.39 0 0 1 .04.18c0 .067-.113.2-.34.4-.213.2-.5.387-.86.56a2.52 2.52 0 0 1-1.14.26zm7.19 0c-.746 0-1.42-.173-2.02-.52s-1.08-.82-1.44-1.42c-.346-.613-.52-1.307-.52-2.08 0-.56.107-1.107.32-1.64a5.17 5.17 0 0 1 .94-1.46 4.46 4.46 0 0 1 1.4-1.04 3.79 3.79 0 0 1 1.72-.4c.774 0 1.467.187 2.08.56a4.14 4.14 0 0 1 1.48 1.48 3.67 3.67 0 0 1 .56 1.98 4.85 4.85 0 0 1-.52 2.2c-.333.693-.833 1.26-1.5 1.7-.666.427-1.5.64-2.5.64zm.42-.6a2.78 2.78 0 0 0 1.22-.26c.36-.173.64-.453.84-.84.16-.307.267-.68.32-1.12s.08-.853.08-1.24c0-.64-.12-1.253-.36-1.84-.226-.6-.553-1.087-.98-1.46-.413-.387-.906-.58-1.48-.58-.36 0-.686.06-.98.18-.28.107-.54.313-.78.62-.266.333-.44.74-.52 1.22s-.12.96-.12 1.44c0 .653.12 1.28.36 1.88.24.587.567 1.067.98 1.44a2.06 2.06 0 0 0 1.42.56zm6.752.6c-.24 0-.487-.093-.74-.28a2.75 2.75 0 0 1-.62-.68c-.16-.267-.24-.52-.24-.76 0-.427.113-.76.34-1s.587-.46 1.08-.66l2.04-.84c.267-.107.42-.2.46-.28.053-.08.087-.253.1-.52l.04-1.28c.013-.347-.087-.647-.3-.9-.2-.253-.493-.38-.88-.38a1.88 1.88 0 0 0-.6.1c-.2.067-.367.153-.5.26-.08.053-.133.133-.16.24s-.04.22-.04.34v.18a.96.96 0 0 1 .02.18c0 .067-.087.16-.26.28a3.6 3.6 0 0 1-.56.3c-.2.08-.367.12-.5.12-.067 0-.12-.013-.16-.04-.04-.04-.06-.087-.06-.14 0-.213.067-.44.2-.68.147-.253.347-.487.6-.7a6.06 6.06 0 0 1 1-.74c.36-.213.713-.38 1.06-.5s.653-.18.92-.18c.48 0 .873.173 1.18.52.32.333.473.753.46 1.26l-.1 4.8c-.013.28.047.507.18.68.147.173.327.26.54.26.333 0 .58-.073.74-.22.067-.067.12-.1.16-.1.067 0 .12.02.16.06s.06.093.06.16c0 .147-.073.293-.22.44a2.51 2.51 0 0 1-.7.5c-.24.133-.467.2-.68.2-.613 0-1.1-.347-1.46-1.04h-.06c-.44.36-.86.62-1.26.78-.4.173-.813.26-1.24.26zm.94-.96c.267 0 .493-.04.68-.12.187-.093.353-.213.5-.36.067-.067.12-.153.16-.26.053-.12.087-.307.1-.56l.04-.98c.013-.147.007-.253-.02-.32s-.08-.1-.16-.1a.88.88 0 0 0-.14.02 1.73 1.73 0 0 0-.26.08c-.707.253-1.2.52-1.48.8-.267.267-.4.513-.4.74 0 .347.1.613.3.8.213.173.44.26.68.26zm7.588.96c-.413 0-.8-.067-1.16-.2-.36-.12-.666-.293-.92-.52-.066-.147-.12-.393-.16-.74l-.06-.86c0-.12.087-.18.26-.18.054 0 .1.013.14.04.054.013.087.047.1.1.174.653.447 1.12.82 1.4.387.28.774.42 1.16.42s.714-.127.98-.38a1.3 1.3 0 0 0 .42-.98c0-.36-.12-.667-.36-.92-.24-.267-.66-.587-1.26-.96-.453-.28-.82-.547-1.1-.8s-.486-.513-.62-.78c-.12-.267-.18-.567-.18-.9a2.28 2.28 0 0 1 .3-1.16c.2-.347.5-.62.9-.82.4-.213.9-.32 1.5-.32.4 0 .734.04 1 .12s.467.167.6.26c.107.147.194.38.26.7.08.307.12.6.12.88 0 .093-.066.14-.2.14-.08 0-.16-.013-.24-.04a.36.36 0 0 1-.14-.14c-.173-.44-.393-.773-.66-1-.253-.24-.573-.36-.96-.36-.333 0-.633.1-.9.3-.253.2-.38.493-.38.88 0 .307.094.58.28.82.2.24.567.513 1.1.82.774.44 1.347.853 1.72 1.24.387.373.58.873.58 1.5 0 .72-.273 1.307-.82 1.76s-1.253.68-2.12.68zm6.465 0c-.413 0-.8-.067-1.16-.2-.36-.12-.667-.293-.92-.52-.067-.147-.12-.393-.16-.74l-.06-.86c0-.12.087-.18.26-.18.053 0 .1.013.14.04.053.013.087.047.1.1.173.653.447 1.12.82 1.4.387.28.773.42 1.16.42a1.37 1.37 0 0 0 .98-.38 1.3 1.3 0 0 0 .42-.98c0-.36-.12-.667-.36-.92-.24-.267-.66-.587-1.26-.96-.453-.28-.82-.547-1.1-.8s-.487-.513-.62-.78c-.12-.267-.18-.567-.18-.9a2.28 2.28 0 0 1 .3-1.16c.2-.347.5-.62.9-.82.4-.213.9-.32 1.5-.32.4 0 .733.04 1 .12s.467.167.6.26c.107.147.193.38.26.7.08.307.12.6.12.88 0 .093-.067.14-.2.14-.08 0-.16-.013-.24-.04-.067-.04-.113-.087-.14-.14-.173-.44-.393-.773-.66-1-.253-.24-.573-.36-.96-.36-.333 0-.633.1-.9.3-.253.2-.38.493-.38.88 0 .307.093.58.28.82.2.24.567.513 1.1.82.773.44 1.347.853 1.72 1.24.387.373.58.873.58 1.5 0 .72-.273 1.307-.82 1.76s-1.253.68-2.12.68zm7.845.02c-.733 0-1.373-.18-1.92-.54s-.973-.867-1.28-1.52c-.307-.667-.46-1.433-.46-2.3 0-.773.173-1.473.52-2.1.36-.64.833-1.153 1.42-1.54s1.227-.58 1.92-.58c.533 0 1.007.107 1.42.32s.733.513.96.9c.24.373.36.807.36 1.3 0 .413-.2.62-.6.62h-4.22c-.187 0-.32.053-.4.16-.067.093-.1.287-.1.58 0 .64.14 1.227.42 1.76.28.52.653.94 1.12 1.26.467.307.98.46 1.54.46.4 0 .76-.073 1.08-.22.333-.16.627-.387.88-.68.053-.067.093-.107.12-.12.027-.027.06-.04.1-.04.107 0 .16.067.16.2 0 .253-.12.533-.36.84-.2.253-.44.473-.72.66a3.19 3.19 0 0 1-.92.42 3.38 3.38 0 0 1-1.04.16zm-1.84-6.06h1.82l.82-.02c.227-.013.447-.04.66-.08a.14.14 0 0 0 .12-.12c.027-.08.04-.187.04-.32 0-.387-.173-.713-.52-.98-.333-.28-.733-.42-1.2-.42-.307 0-.613.093-.92.28a2.42 2.42 0 0 0-.76.66c-.2.267-.3.533-.3.8 0 .133.08.2.24.2zm9.153 6.04c-.653 0-1.167-.2-1.54-.6-.36-.4-.54-.993-.54-1.78v-4.64c0-.107-.04-.18-.12-.22-.08-.053-.253-.08-.52-.08h-.12c-.067 0-.127-.04-.18-.12-.04-.093-.06-.187-.06-.28 0-.027.02-.067.06-.12l.08-.1a8.36 8.36 0 0 0 .72-.56l.6-.54.46-.5.16-.16c.053-.053.113-.08.18-.08a.39.39 0 0 1 .18.04c.067.027.093.087.08.18l-.1.9c-.013.147.02.247.1.3s.207.08.38.08h2.28c.053 0 .1.047.14.14.04.08.06.18.06.3s-.02.24-.06.36c-.04.107-.087.16-.14.16h-1.98c-.333 0-.553.027-.66.08-.093.053-.14.213-.14.48v3.94c0 .533.113.953.34 1.26s.553.46.98.46c.387 0 .687-.027.9-.08.213-.067.407-.16.58-.28.027-.027.053-.04.08-.04.053 0 .087.033.1.1a.39.39 0 0 1 .04.18c0 .067-.113.2-.34.4-.213.2-.5.387-.86.56a2.52 2.52 0 0 1-1.14.26zm5.39 0c-.413 0-.8-.067-1.16-.2-.36-.12-.667-.293-.92-.52-.067-.147-.12-.393-.16-.74l-.06-.86c0-.12.087-.18.26-.18.053 0 .1.013.14.04.053.013.087.047.1.1.173.653.447 1.12.82 1.4.387.28.773.42 1.16.42a1.37 1.37 0 0 0 .98-.38 1.3 1.3 0 0 0 .42-.98c0-.36-.12-.667-.36-.92-.24-.267-.66-.587-1.26-.96-.453-.28-.82-.547-1.1-.8s-.487-.513-.62-.78c-.12-.267-.18-.567-.18-.9a2.28 2.28 0 0 1 .3-1.16c.2-.347.5-.62.9-.82.4-.213.9-.32 1.5-.32.4 0 .733.04 1 .12s.467.167.6.26c.107.147.193.38.26.7.08.307.12.6.12.88 0 .093-.067.14-.2.14-.08 0-.16-.013-.24-.04-.067-.04-.113-.087-.14-.14-.173-.44-.393-.773-.66-1-.253-.24-.573-.36-.96-.36-.333 0-.633.1-.9.3-.253.2-.38.493-.38.88 0 .307.093.58.28.82.2.24.567.513 1.1.82.773.44 1.347.853 1.72 1.24.387.373.58.873.58 1.5 0 .72-.273 1.307-.82 1.76s-1.253.68-2.12.68z"/></g><g fill="#2e3338"><path d="M180.946 98.274a1 1 0 0 1 0-1.548l6.42-5.25a1 1 0 0 1 1.633.774v10.502a1 1 0 0 1-1.633.774l-6.42-5.25zm69.108-1.548a1 1 0 0 1 0 1.548l-6.42 5.25a1 1 0 0 1-1.633-.774v-10.5a1 1 0 0 1 1.633-.774l6.42 5.25z"/><path d="M187 97h58v2h-58z"/></g></svg>