<?xml version="1.0" encoding="utf-8"?>
<svg version="1.1" id="Layer_1" xmlns="http://www.w3.org/2000/svg" xmlns:xlink="http://www.w3.org/1999/xlink" x="0px" y="0px"
	 viewBox="0 0 100 100" style="enable-background:new 0 0 100 100;" xml:space="preserve">
<style type="text/css">
	.st0{fill:#FBCC5C;}
	.st1{fill:#F9B73E;}
	.st2{fill:#FFFFFF;}
</style>
<desc>Symbol for the Celo native asset</desc>
<path class="st0" d="M0,0h100v100H0V0z"/>
<g>
	<path class="st1" d="M79.4,44c0-13-10.5-23.5-23.5-23.5c-9.6,0-17.9,5.8-21.5,14.1C26.2,38.3,20.5,46.5,20.5,56
		C20.5,69,31,79.5,44,79.5c9.6,0,17.9-5.8,21.5-14.1C73.8,61.8,79.4,53.6,79.4,44z M59.7,59.5c-1.2,0.3-2.4,0.4-3.6,0.4
		c-8.8,0-15.9-7.2-15.9-15.9c0-1.2,0.1-2.3,0.4-3.4c1.2-0.3,2.4-0.4,3.6-0.4c8.8,0,15.9,7.1,15.9,15.9C60,57.3,59.9,58.4,59.7,59.5z
		 M28.2,56.1c0-4.3,1.7-8.1,4.4-11C33.2,57.3,43,67,55.2,67.5c-2.9,2.8-6.8,4.6-11.1,4.6C35.3,72,28.2,64.9,28.2,56.1z M67.6,55
		C67,42.8,57.2,33.1,45,32.6c2.9-2.8,6.8-4.6,11.1-4.6C64.9,28,72,35.1,72,43.9C71.9,48.3,70.2,52.2,67.6,55z"/>
	<path class="st2" d="M78.6,44c0-12.4-10.1-22.5-22.5-22.5c-9.4,0-17.4,5.7-20.8,13.9c-8,3.4-13.7,11.4-13.7,20.7
		c0,12.4,10.1,22.5,22.5,22.5c9.4,0,17.4-5.7,20.8-13.9C72.8,61.3,78.6,53.3,78.6,44z M44.1,73c-9.3,0-16.9-7.6-16.9-16.9
		c0-5.3,2.5-10.1,6.4-13.2c0,0.4,0,0.8,0,1.1c0,12.4,10.1,22.5,22.5,22.5c0.5,0,0.9,0,1.4,0C54.3,70.5,49.5,73,44.1,73z M60.5,60.3
		c-1.4,0.4-2.9,0.6-4.4,0.6c-9.3,0-16.9-7.6-16.9-16.9c0-1.5,0.2-2.9,0.6-4.2c1.4-0.4,2.9-0.6,4.4-0.6c9.3,0,16.9,7.6,16.9,16.9
		C61,57.6,60.8,59,60.5,60.3z M66.6,57.2c0-0.4,0-0.8,0-1.1c0-12.4-10.1-22.5-22.5-22.5c-0.5,0-0.9,0-1.4,0c3.1-4,7.9-6.5,13.3-6.5
		c9.3,0,16.9,7.6,16.9,16.9C72.9,49.4,70.4,54.1,66.6,57.2z"/>
</g>
</svg>

