<?xml version="1.0" encoding="utf-8"?>
<!-- Generator: Adobe Illustrator 24.1.2, SVG Export Plug-In . SVG Version: 6.00 Build 0)  -->
<svg version="1.1" id="Layer_1" xmlns="http://www.w3.org/2000/svg" xmlns:xlink="http://www.w3.org/1999/xlink" x="0px" y="0px"
	 viewBox="0 0 100 100" style="enable-background:new 0 0 100 100;" xml:space="preserve">
<style type="text/css">
	.st0{fill:#FFFFFF;}
</style>
<desc>Symbol for the CELO currency</desc>
<g>
	<path class="st0" d="M78.6,44c0-12.4-10.1-22.5-22.5-22.5c-9.4,0-17.4,5.7-20.8,13.9c-8,3.4-13.7,11.4-13.7,20.7
		c0,12.4,10.1,22.5,22.5,22.5c9.4,0,17.4-5.7,20.8-13.9C72.8,61.3,78.6,53.3,78.6,44z M44.1,73c-9.3,0-16.9-7.6-16.9-16.9
		c0-5.3,2.5-10.1,6.4-13.2c0,0.4,0,0.8,0,1.1c0,12.4,10.1,22.5,22.5,22.5c0.5,0,0.9,0,1.4,0C54.3,70.5,49.5,73,44.1,73z M60.5,60.3
		c-1.4,0.4-2.9,0.6-4.4,0.6c-9.3,0-16.9-7.6-16.9-16.9c0-1.5,0.2-2.9,0.6-4.2c1.4-0.4,2.9-0.6,4.4-0.6c9.3,0,16.9,7.6,16.9,16.9
		C61,57.6,60.8,59,60.5,60.3z M66.6,57.2c0-0.4,0-0.8,0-1.1c0-12.4-10.1-22.5-22.5-22.5c-0.5,0-0.9,0-1.4,0c3.1-4,7.9-6.5,13.3-6.5
		c9.3,0,16.9,7.6,16.9,16.9C72.9,49.4,70.4,54.1,66.6,57.2z"/>
</g>
</svg>
